<svg width="153" height="168" viewBox="0 0 153 168" fill="none" xmlns="http://www.w3.org/2000/svg">
<path d="M83.3961 12.0407C82.0373 12.0407 80.9364 10.9397 80.9364 9.581V2.45969C80.9364 1.10096 82.0373 0 83.3961 0C84.7548 0 85.8558 1.10096 85.8558 2.45969V9.581C85.8558 10.9394 84.7548 12.0407 83.3961 12.0407Z" fill="white"/>
<path d="M57.024 18.3715C56.394 18.3715 55.764 18.1311 55.2835 17.65L50.2507 12.6113C49.2907 11.65 49.2917 10.0929 50.253 9.13293C51.2139 8.17299 52.7714 8.17398 53.7313 9.13522L58.7642 14.174C59.7241 15.1352 59.7231 16.6924 58.7619 17.6523C58.2821 18.1315 57.653 18.3715 57.024 18.3715Z" fill="white"/>
<path d="M109.759 18.3715C109.13 18.3715 108.501 18.1318 108.021 17.6523C107.06 16.6921 107.059 15.1349 108.019 14.174L113.052 9.13522C114.012 8.17398 115.569 8.17299 116.53 9.13293C117.491 10.0932 117.492 11.6503 116.532 12.6113L111.499 17.65C111.019 18.1308 110.389 18.3715 109.759 18.3715Z" fill="white"/>
<path d="M132.347 125.992L123.822 117.458C123.78 117.415 123.745 117.385 123.713 117.359C123.279 116.973 122.708 116.736 122.081 116.736C121.445 116.736 120.867 116.98 120.431 117.376C120.411 117.392 120.39 117.412 120.37 117.431C120.36 117.441 120.35 117.449 120.34 117.458L111.808 125.991C110.847 126.952 110.847 128.509 111.808 129.47C112.289 129.95 112.918 130.19 113.548 130.19C114.177 130.19 114.807 129.95 115.287 129.469L119.622 125.134V144.389C119.622 145.748 120.723 146.849 122.081 146.849C123.44 146.849 124.541 145.748 124.541 144.389V125.139L128.866 129.468C129.346 129.949 129.976 130.189 130.606 130.189C131.235 130.189 131.864 129.95 132.345 129.47C133.305 128.511 133.306 126.953 132.347 125.992Z" fill="white"/>
<path d="M37.7144 107.607C37.7069 107.607 37.7 107.607 37.6928 107.607C31.4458 107.607 26.3568 112.687 26.3447 118.94C26.3329 125.203 31.4123 130.308 37.6632 130.32H37.7072C40.7185 130.32 43.5511 129.151 45.6881 127.027C47.8421 124.885 49.0316 122.03 49.0375 118.987C49.0493 112.724 43.9699 107.619 37.7144 107.607ZM42.2196 123.538C41.0111 124.74 39.4096 125.401 37.7026 125.401C37.6944 125.401 37.6855 125.401 37.6777 125.401C34.1347 125.394 31.2579 122.5 31.2644 118.95C31.2713 115.406 34.1541 112.527 37.6931 112.527H37.7052C41.2482 112.534 44.125 115.428 44.1185 118.978C44.1149 120.705 43.4402 122.324 42.2196 123.538Z" fill="white"/>
<path d="M150.533 120.994C150.051 119.725 148.631 119.082 147.362 119.564C146.089 120.043 145.45 121.463 145.929 122.732C149.474 132.118 147.188 142.761 140.111 149.848C135.293 154.669 128.888 157.325 122.076 157.325C115.265 157.325 108.86 154.669 104.042 149.848C103.314 149.12 102.638 148.356 102.022 147.565C101.582 147.011 101.172 146.44 100.788 145.86C100.126 144.86 99.5455 143.82 99.0437 142.754C99.0241 142.718 99.0077 142.682 98.9913 142.646C96.8563 138.084 96.1413 133.017 96.8464 128.117C97.0891 126.448 97.4925 124.798 98.0631 123.198C98.6305 121.604 99.3586 120.053 100.254 118.577C101.294 116.852 102.556 115.225 104.042 113.74C105.783 111.995 107.738 110.532 109.843 109.378C113.549 107.341 117.731 106.262 122.076 106.262C128.888 106.262 135.293 108.915 140.111 113.74C141.072 114.701 142.63 114.701 143.59 113.74C144.551 112.782 144.551 111.224 143.59 110.263C140.718 107.387 137.369 105.157 133.725 103.645C130.082 102.133 126.14 101.343 122.076 101.343C119.781 101.343 117.521 101.595 115.333 102.087C115.819 101.497 116.308 100.903 116.799 100.31C124.123 91.4679 131.692 82.3244 131.672 65.628C131.659 52.4014 127.202 41.0245 118.777 32.7271C109.948 24.0296 97.0465 19.1594 83.3968 19.3365C83.1312 19.3332 82.8688 19.33 82.6064 19.33C67.9598 19.33 54.6085 25.0102 45.8783 34.9867C44.9829 36.0067 45.0879 37.5612 46.1078 38.4565C47.1311 39.3519 48.6856 39.2469 49.5809 38.227C57.5241 29.1523 69.8488 24.0657 83.3607 24.2559H83.4296C95.7937 24.0886 107.42 28.4472 115.327 36.233C122.791 43.5858 126.743 53.7526 126.753 65.6312C126.773 80.5534 120.089 88.6278 113.012 97.1711C110.745 99.9063 108.453 102.674 106.39 105.688C104.294 106.954 102.336 108.486 100.562 110.263C96.8366 113.995 94.2818 118.459 92.8945 123.198H85.4006V77.5811H90.5089C91.8677 77.5811 92.9686 76.4801 92.9686 75.1214C92.9686 73.7627 91.8677 72.6617 90.5089 72.6617H75.085C73.7263 72.6617 72.6253 73.7627 72.6253 75.1214C72.6253 76.4801 73.7263 77.5811 75.085 77.5811H80.4812V123.198H67.4809C66.9136 119.243 65.8116 115.773 64.3653 112.628C64.0702 111.975 63.7553 111.339 63.4306 110.716C60.7676 105.619 57.2388 101.356 53.7722 97.1711C53.3197 96.6267 52.8704 96.0823 52.4243 95.5379C48.7938 91.1268 45.3798 86.7158 43.0611 81.2848H43.0578C41.1852 76.9065 40.0209 71.8658 40.0308 65.6312C40.0373 58.7671 41.336 52.4965 43.8876 46.9933C44.4582 45.7602 43.9236 44.2975 42.6905 43.7269C41.4574 43.1562 39.9947 43.6908 39.424 44.9239C36.5708 51.0764 35.1179 58.0423 35.1114 65.628C35.1015 71.7215 36.1051 76.8081 37.7416 81.2421L33.0747 81.2323C29.7722 81.2323 27.0862 83.9183 27.0862 87.211L27.0829 88.9787C26.0794 89.346 25.0988 89.7625 24.1444 90.2216L22.8752 88.9459C20.5434 86.6141 16.7489 86.6075 14.4139 88.9295C14.4106 88.9328 14.4106 88.9328 14.4106 88.9328L7.78252 95.5477C6.65106 96.6759 6.02466 98.1779 6.02138 99.7817C6.0181 101.382 6.63795 102.884 7.76285 104.012L9.21243 105.465C8.79264 106.37 8.41877 107.295 8.09081 108.236L6.00826 108.23C2.70571 108.23 0.0197292 110.913 0.0197292 114.209L5.17984e-05 123.572C-0.00650739 125.169 0.610056 126.678 1.74479 127.812C2.87297 128.95 4.37503 129.577 5.96563 129.577L8.22527 129.58C8.54995 130.469 8.91398 131.341 9.31409 132.197L7.70709 133.804C6.57563 134.929 5.94923 136.434 5.94923 138.035C5.94595 139.635 6.5658 141.141 7.68742 142.265L14.3024 148.923C16.6341 151.245 20.4286 151.248 22.7604 148.93L24.3707 147.319C25.2201 147.726 26.0859 148.09 26.9649 148.415V150.671C26.9517 153.97 29.6246 156.669 32.9304 156.686L42.3068 156.702C45.5929 156.702 48.2789 154.026 48.2953 150.727L48.2986 148.638C49.2333 148.313 50.1516 147.942 51.0535 147.533L52.5063 148.992C54.8348 151.324 58.6326 151.33 60.971 149.002L62.4599 147.516C62.6993 147.549 62.9485 147.565 63.1978 147.565H66.0051V155.276C66.0051 162.245 71.6657 167.915 78.6217 167.915H88.1588C95.1213 167.915 100.788 162.245 100.788 155.276V153.544C106.508 159.159 114.054 162.245 122.076 162.245C130.203 162.245 137.845 159.077 143.59 153.324C152.032 144.873 154.757 132.184 150.533 120.994ZM57.4618 128.931V141.823C57.4618 142.892 57.7537 143.895 58.2686 144.755L57.5011 145.519C57.0912 145.926 56.3959 145.926 55.9893 145.519L53.2967 142.813C52.5358 142.046 51.365 141.869 50.4107 142.37C48.7381 143.249 46.9769 143.954 45.1732 144.469C44.1171 144.768 43.3858 145.732 43.3858 146.827L43.3759 150.707C43.3727 151.291 42.884 151.783 42.3101 151.783L32.9468 151.766C32.3696 151.763 31.8842 151.271 31.8842 150.684V146.65C31.8842 145.565 31.1759 144.61 30.1395 144.296C28.398 143.768 26.6959 143.049 25.0889 142.161C24.7151 141.954 24.3084 141.856 23.9017 141.856C23.2655 141.856 22.6358 142.102 22.1635 142.574L19.2873 145.443C18.8774 145.85 18.1821 145.847 17.782 145.447L11.1736 138.792C10.9047 138.527 10.8653 138.209 10.8653 138.045C10.8686 137.877 10.908 137.559 11.1835 137.287L14.0531 134.414C14.8205 133.643 14.9943 132.46 14.4762 131.505C13.5972 129.885 12.8856 128.173 12.3543 126.415C12.0427 125.379 11.0884 124.667 10.0061 124.667L5.96891 124.657C5.59832 124.657 5.34579 124.461 5.231 124.343C5.11294 124.228 4.91616 123.972 4.91944 123.588L4.93912 114.212C4.93912 113.628 5.41794 113.149 6.00171 113.149L9.88146 113.159H9.88802C10.9867 113.159 11.9542 112.428 12.2559 111.368C12.7675 109.565 13.4759 107.807 14.3679 106.144C14.8796 105.19 14.709 104.012 13.9449 103.245L11.2491 100.539C10.9801 100.27 10.9408 99.9522 10.9408 99.7882C10.9408 99.6242 10.9834 99.3061 11.2556 99.0339L17.8837 92.4157C18.3002 92.0025 18.9791 92.0057 19.389 92.419L21.934 94.9738C22.7145 95.7576 23.9181 95.9249 24.8823 95.3837C26.5615 94.4425 28.3685 93.675 30.251 93.1011C31.2874 92.7896 31.9958 91.8352 31.9958 90.7562L32.0056 87.2175C32.0056 86.6305 32.4844 86.1517 33.0715 86.1517L39.9225 86.1648C42.7135 91.5302 46.38 95.9576 49.9843 100.31C55.599 107.095 60.9283 113.533 62.5058 123.244C59.669 123.585 57.4618 126.002 57.4618 128.931ZM63.1978 142.646C62.7551 142.646 62.3812 142.269 62.3812 141.823V128.931C62.3812 128.583 62.6107 128.281 62.9223 128.167C63.0076 128.134 63.0994 128.117 63.1978 128.117H91.8877C91.3006 132.997 91.8877 137.995 93.6521 142.646H63.1978ZM95.8691 155.276C95.8691 159.533 92.4091 162.996 88.1588 162.996H78.6217C74.3779 162.996 70.9245 159.533 70.9245 155.276V147.565H95.8691V155.276Z" fill="white"/>
</svg>
