<svg aria-hidden="true" style="position:absolute;width:0;height:0" xmlns="http://www.w3.org/2000/svg" overflow="hidden">
<defs>
  <symbol id="i-link" viewBox="0 0 24 24"><g opacity=".4"><path d="M22.909 1h-8.727c-.603 0-1.091.448-1.091 1s.488 1 1.09 1h6.094L9.047 13.293a.942.942 0 000 1.414c.213.195.492.293.771.293.28 0 .558-.098.771-.293L21.82 4.414V10c0 .552.488 1 1.09 1 .603 0 1.091-.448 1.091-1V2c0-.552-.488-1-1.091-1z"/><path d="M18.546 11c-.603 0-1.091.448-1.091 1v9H2.182V7H12c.603 0 1.091-.448 1.091-1s-.488-1-1.09-1H1.09C.488 5 0 5.448 0 6v16c0 .552.488 1 1.09 1h17.456c.602 0 1.09-.448 1.09-1V12c0-.552-.488-1-1.09-1z"/></g></symbol>
</defs>
</svg>