<svg aria-hidden="true" style="position:absolute;width:0;height:0" xmlns="http://www.w3.org/2000/svg" overflow="hidden">
  <defs>
    <symbol id="i-place" viewBox="0 0 24 24">
      <path
        d="M19.966 4.173C18.134 1.52 15.23 0 12 0 8.77 0 5.866 1.521 4.034 4.173 2.21 6.81 1.789 10.15 2.905 13.103c.299.805.773 1.588 1.407 2.322l7.049 8.28a.839.839 0 001.278 0l7.047-8.278c.636-.738 1.11-1.52 1.406-2.32 1.118-2.956.697-6.296-1.126-8.934zm-.445 8.347c-.229.617-.601 1.227-1.107 1.813l-.004.005L12 21.867l-6.414-7.534c-.506-.586-.879-1.196-1.11-1.819-.922-2.44-.572-5.202.938-7.387C6.928 2.935 9.329 1.678 12 1.678c2.67 0 5.07 1.257 6.585 3.45 1.51 2.184 1.86 4.946.936 7.392z" />
      <path
        d="M12 4.979a4.705 4.705 0 00-4.699 4.7 4.705 4.705 0 004.7 4.699 4.705 4.705 0 004.699-4.7A4.705 4.705 0 0012 4.979zm0 7.72a3.024 3.024 0 01-3.02-3.02A3.024 3.024 0 0112 6.656a3.024 3.024 0 013.022 3.021A3.025 3.025 0 0112 12.7z" />
    </symbol>
    <symbol id="i-phone" viewBox="0 0 32 32">
      <g clip-path="url(#clip0_33_202)">
        <path
          d="M25.29 19.823c-.655-.682-1.445-1.047-2.283-1.047-.83 0-1.628.358-2.31 1.04l-2.134 2.128c-.175-.095-.351-.183-.52-.27-.243-.122-.473-.237-.668-.359-2-1.27-3.816-2.924-5.559-5.065-.844-1.067-1.411-1.965-1.823-2.877.553-.507 1.067-1.033 1.566-1.54.19-.189.379-.385.568-.574 1.418-1.418 1.418-3.255 0-4.674l-1.844-1.843c-.21-.21-.425-.426-.628-.642-.405-.419-.83-.851-1.27-1.256-.655-.649-1.438-.993-2.262-.993-.824 0-1.621.344-2.297.993l-.013.013-2.296 2.317A4.941 4.941 0 00.05 8.314c-.162 1.973.419 3.81.864 5.012 1.095 2.951 2.729 5.686 5.167 8.618 2.958 3.532 6.518 6.321 10.583 8.287 1.554.736 3.627 1.607 5.944 1.755.142.007.29.014.425.014 1.56 0 2.87-.56 3.897-1.675.007-.014.02-.02.027-.034.351-.425.757-.81 1.182-1.222.29-.277.588-.567.878-.871.669-.696 1.02-1.506 1.02-2.337 0-.838-.358-1.641-1.04-2.317l-3.708-3.721zm2.418 7.112c-.007.006-.007 0 0 0-.263.283-.534.54-.824.824-.44.418-.885.857-1.304 1.35-.682.73-1.485 1.074-2.539 1.074-.101 0-.21 0-.31-.006-2.007-.129-3.87-.912-5.269-1.58-3.822-1.852-7.179-4.479-9.968-7.808C5.19 18.013 3.65 15.446 2.63 12.69c-.628-1.682-.858-2.992-.756-4.228a3.1 3.1 0 01.932-2.006L5.11 4.154c.33-.31.682-.48 1.026-.48.426 0 .77.257.986.473l.02.02c.412.385.804.784 1.216 1.21.21.216.426.432.642.655l1.844 1.843c.716.716.716 1.378 0 2.094-.196.196-.385.392-.581.58a35.285 35.285 0 01-1.695 1.649c-.014.013-.027.02-.034.034-.581.58-.473 1.148-.351 1.533l.02.06c.48 1.162 1.155 2.256 2.181 3.56l.007.006c1.864 2.297 3.83 4.087 5.998 5.458.276.175.56.317.83.452.243.122.473.237.669.358.027.014.054.034.08.047.23.115.447.17.67.17.56 0 .911-.352 1.026-.467l2.31-2.31c.23-.23.594-.506 1.02-.506.418 0 .763.263.972.493l.014.013 3.721 3.722c.696.689.696 1.398.007 2.114zM17.294 7.612a8.564 8.564 0 014.66 2.418 8.609 8.609 0 012.418 4.66.905.905 0 00.898.756.913.913 0 00.905-1.067 10.417 10.417 0 00-2.925-5.64 10.417 10.417 0 00-5.64-2.924.917.917 0 00-1.053.743.902.902 0 00.737 1.054zm14.669 6.504a17.137 17.137 0 00-4.816-9.287A17.137 17.137 0 0017.861.014a.908.908 0 00-1.047.743c-.081.5.25.966.75 1.053 3.147.534 6.017 2.027 8.3 4.303a15.3 15.3 0 014.302 8.3c.075.446.46.756.898.756a.895.895 0 00.898-1.054z" />
      </g>
      <defs>
        <clipPath id="clip0_33_202">
          <path d="M0 0h32v32H0z" />
        </clipPath>
      </defs>
    </symbol>
    <symbol id="i-mail" viewBox="0 0 32 32">
      <path
        d="M30.853 13.87a15.004 15.004 0 10-29.73 4.082A15.1 15.1 0 0014 30.87c.668.087 1.342.13 2.016.13a14.85 14.85 0 007.715-2.145.999.999 0 10-1.031-1.711 13.007 13.007 0 115.458-6.529A2.149 2.149 0 0124 19.856V9a1 1 0 00-2 0v1.726a8 8 0 10.2 10.325 4.135 4.135 0 007.83.274 15.2 15.2 0 00.823-7.455zM16 22a6 6 0 110-12 6 6 0 010 12z" />
    </symbol>
    <symbol id="i-link" viewBox="0 0 24 24">
      <g opacity=".4">
        <path
          d="M22.909 1h-8.727c-.603 0-1.091.448-1.091 1s.488 1 1.09 1h6.094L9.047 13.293a.942.942 0 000 1.414c.213.195.492.293.771.293.28 0 .558-.098.771-.293L21.82 4.414V10c0 .552.488 1 1.09 1 .603 0 1.091-.448 1.091-1V2c0-.552-.488-1-1.091-1z" />
        <path
          d="M18.546 11c-.603 0-1.091.448-1.091 1v9H2.182V7H12c.603 0 1.091-.448 1.091-1s-.488-1-1.09-1H1.09C.488 5 0 5.448 0 6v16c0 .552.488 1 1.09 1h17.456c.602 0 1.09-.448 1.09-1V12c0-.552-.488-1-1.09-1z" />
      </g>
    </symbol>
    <symbol id="i-road-1" viewBox="0 0 158 153">
      <path
        d="M133.432 62.4562C134.673 62.4575 135.679 61.4533 135.681 60.2129C135.681 60.2113 135.681 60.2093 135.681 60.2077V52.3367C135.682 51.0963 134.678 50.0895 133.437 50.0882C133.436 50.0882 133.434 50.0882 133.432 50.0882H2.24849C1.00815 50.0869 0.00131312 51.0911 1.28381e-06 52.3314C1.28381e-06 52.333 1.28381e-06 52.335 1.28381e-06 52.3367V115.305C-0.00131055 116.545 1.0029 117.552 2.24324 117.553C2.24488 117.553 2.24685 117.553 2.24849 117.553H91.4534C92.6951 117.553 93.7019 116.546 93.7019 115.305C93.7019 114.063 92.6951 113.056 91.4534 113.056H4.49698V54.5851H131.184V60.2077C131.182 61.448 132.187 62.4549 133.427 62.4562C133.429 62.4562 133.431 62.4562 133.432 62.4562Z" />
      <path
        d="M11.539 16.3292C11.0349 16.6503 10.6784 17.1576 10.5472 17.7407L5.29989 41.3538C5.0303 42.5666 5.7951 43.7682 7.0079 44.0378C8.22069 44.3074 9.42233 43.5426 9.69192 42.3298L14.4486 20.918L117.197 44.0352C117.36 44.0729 117.526 44.0913 117.693 44.0903C118.934 44.088 119.939 43.0795 119.937 41.8379C119.935 40.7881 119.208 39.8796 118.183 39.6484L13.2365 16.0353C12.654 15.9055 12.0437 16.0111 11.539 16.3292Z" />
      <path
        d="M38.374 13.9889L42.6794 5.3728L103.703 30.7988C104.853 31.2783 106.173 30.7359 106.652 29.5867C107.132 28.4375 106.589 27.1172 105.44 26.6377L42.4721 0.400932C41.3777 -0.055259 40.1167 0.413395 39.5861 1.47402L34.3387 11.9687C33.7461 13.0648 34.1541 14.434 35.2505 15.0266C36.3468 15.6192 37.7157 15.2112 38.3084 14.1149C38.3316 14.0719 38.3536 14.028 38.374 13.9834V13.9889Z" />
      <path
        d="M109.279 62.8312C109.279 61.5895 108.272 60.5827 107.03 60.5827H86.206C84.9644 60.5827 83.9576 61.5895 83.9576 62.8312C83.9576 64.0729 84.9644 65.0797 86.206 65.0797H107.03C108.272 65.0797 109.279 64.0732 109.279 62.8312Z" />
      <path
        d="M65.2166 106.909C77.968 106.909 88.305 96.572 88.305 83.8206C88.305 71.0692 77.968 60.7322 65.2166 60.7322C52.4653 60.7322 42.1283 71.0692 42.1283 83.8206C42.1414 96.5667 52.4708 106.896 65.2166 106.909ZM65.2166 64.9301C75.6497 64.9301 84.1071 73.3875 84.1071 83.8206C84.1071 94.2536 75.6497 102.711 65.2166 102.711C54.7836 102.711 46.3262 94.2536 46.3262 83.8206C46.3377 73.3925 54.7885 64.9419 65.2166 64.9301Z" />
      <path
        d="M128.185 68.0786C114.279 68.0786 99.3243 71.3634 99.3243 78.5733V141.541C99.3243 148.751 114.279 152.036 128.185 152.036C142.09 152.036 157.045 148.751 157.045 141.541V78.5733C157.045 71.3634 142.09 68.0786 128.185 68.0786ZM151.798 131.007C151.402 132.464 143.533 136.294 128.185 136.294C112.836 136.294 104.968 132.464 104.572 131.047V126.922C110.155 129.735 119.377 131.047 128.185 131.047C136.992 131.047 146.217 129.722 151.798 126.92V131.007ZM151.798 120.513C151.402 121.969 143.533 125.799 128.185 125.799C112.836 125.799 104.968 121.969 104.572 120.552V116.428C110.155 119.24 119.377 120.552 128.185 120.552C136.992 120.552 146.217 119.227 151.798 116.425V120.513ZM151.798 110.018C151.402 111.474 143.533 115.305 128.185 115.305C112.836 115.305 104.968 111.474 104.572 110.057V105.933C110.155 108.746 119.377 110.057 128.185 110.057C136.992 110.057 146.217 108.732 151.798 105.93V110.018ZM151.798 99.5233C151.402 100.979 143.533 104.81 128.185 104.81C112.836 104.81 104.968 100.979 104.572 99.5626V95.4382C110.155 98.2377 119.377 99.5626 128.185 99.5626C136.992 99.5626 146.217 98.2377 151.798 95.4356V99.5233ZM151.798 89.0286C151.402 90.4847 143.533 94.3153 128.185 94.3153C112.836 94.3153 104.968 90.4847 104.572 89.0679V84.9435C110.155 87.743 119.377 89.0679 128.185 89.0679C136.992 89.0679 146.217 87.743 151.798 84.9409V89.0286ZM128.185 73.3259C143.402 73.3259 151.273 77.0883 151.798 78.5733C151.273 80.0583 143.402 83.8206 128.185 83.8206C112.86 83.8206 104.994 80.0005 104.572 78.6205V78.6047C104.994 77.1433 112.86 73.3259 128.185 73.3259ZM128.185 146.789C112.836 146.789 104.968 142.958 104.572 141.541V137.417C110.155 140.23 119.377 141.541 128.185 141.541C136.992 141.541 146.217 140.216 151.798 137.414V141.502C151.402 142.958 143.533 146.789 128.185 146.789Z" />
      <path
        d="M25.3762 65.0797H44.2273C45.469 65.0797 46.4758 64.0729 46.4758 62.8312C46.4758 61.5896 45.469 60.5827 44.2273 60.5827H24.4632C23.8755 60.5814 23.3104 60.8103 22.889 61.2203L11.169 72.6516C10.7312 73.1632 10.4912 73.8149 10.4921 74.4882V93.1478C10.4921 93.7089 10.7017 94.2497 11.0798 94.6642L21.7398 106.324C22.1658 106.79 22.7686 107.056 23.4006 107.056H44.2273C45.469 107.056 46.4758 106.049 46.4758 104.807C46.4758 103.566 45.469 102.559 44.2273 102.559H24.395L14.9917 92.2741V75.2202L25.3762 65.0797Z" />
      <path
        d="M75.1988 73.1042C76.8102 74.6774 77.6164 76.6772 77.6164 79.1014C77.6164 81.526 76.8102 83.5188 75.1988 85.0788C73.5864 86.6397 71.4516 87.4199 68.7947 87.4199H62.5266V98.2923H58.348V70.7438H68.7947C71.4516 70.7438 73.5864 71.531 75.1988 73.1042ZM72.1223 82.487C72.9997 81.6738 73.4378 80.5457 73.4378 79.1014C73.4378 77.6571 72.9997 76.5281 72.1223 75.7158C71.2458 74.9034 70.0587 74.4971 68.5634 74.4971H62.5271V83.7062H68.5634C70.0592 83.7062 71.2458 83.2993 72.1223 82.487Z" />
      <path clip-rule="evenodd" d="M57.3927 89.4945H72.8554V93.4862H57.3927V89.4945Z" />
    </symbol>

    <symbol id="i-road-2" viewBox="0 0 168 124">
      <path
        d="M148.146 55.4888C142.432 52.6323 131.719 52.5992 131.266 52.5992C129.908 52.5992 128.806 53.7004 128.806 55.0588C128.806 56.4173 129.908 57.5185 131.266 57.5185C134.03 57.5189 142.057 57.9446 145.946 59.889C146.299 60.0658 146.674 60.1491 147.044 60.1491C147.946 60.1491 148.815 59.6506 149.246 58.7891C149.853 57.574 149.361 56.0965 148.146 55.4888Z" />
      <path
        d="M160.409 90.5086L150.25 87.6061C149.812 87.4808 149.505 87.0748 149.505 86.6186V83.2279C150.332 82.6552 151.12 82.0144 151.857 81.2991C155.429 77.8333 157.396 73.1844 157.396 68.2086V63.5296L158.378 61.5655C159.456 59.4092 160.025 56.9951 160.025 54.5846V41.9089C160.025 40.5505 158.924 39.4492 157.566 39.4492H133.896C125.289 39.4492 118.286 46.4518 118.286 55.0588V55.2054C118.286 57.2099 118.76 59.2173 119.657 61.0099L120.916 63.5293V67.5468C120.916 73.9138 124.054 79.6265 128.806 83.0642L128.807 86.618C128.807 87.166 128.807 87.3929 126.776 87.9734L121.819 89.3896L107.48 84.1757C107.532 83.4991 107.304 82.811 106.81 82.2925L102.228 77.4787V69.3978C102.713 68.9987 103.19 68.5887 103.653 68.1552C109.433 62.7373 112.748 55.088 112.748 47.1687V40.7152C114.494 36.9171 115.378 32.8979 115.378 28.7587V2.45969C115.378 1.10129 114.277 0 112.918 0H76.0987C63.141 0 52.5994 10.5419 52.5994 23.4993V28.7594C52.5994 32.8986 53.4839 36.9177 55.2293 40.7158V46.2685C55.2293 55.4632 59.3177 63.7468 65.7493 69.2079V77.4791L61.1674 82.2928C60.6738 82.8113 60.4455 83.4994 60.497 84.176L45.3633 89.6788C44.2666 90.0776 43.2477 90.6178 42.3225 91.272L39.9461 90.0838C47.0202 87.0046 49.2611 82.6739 49.3687 82.4588C49.715 81.7665 49.715 80.9512 49.3687 80.2588C47.5954 76.7123 47.3806 70.2118 47.2081 64.9887C47.1507 63.2499 47.0963 61.6071 46.9923 60.1444C46.1537 48.3464 37.1847 39.4492 26.1292 39.4492C15.0737 39.4492 6.10431 48.3461 5.26604 60.1444C5.16208 61.6075 5.10764 63.2502 5.05024 64.9894C4.87774 70.2121 4.6626 76.712 2.88965 80.2585C2.54332 80.9508 2.54332 81.7661 2.88965 82.4585C2.99722 82.6736 5.23357 86.9955 12.3218 90.0783L5.72092 93.3785C2.19208 95.1443 0 98.6911 0 102.636V120.808C0 122.166 1.10129 123.268 2.45969 123.268C3.8181 123.268 4.91939 122.166 4.91939 120.808V102.636C4.91939 100.566 6.06954 98.7049 7.92087 97.7791L16.1405 93.6694L18.9997 96.3866C20.9989 98.2864 23.5635 99.2359 26.1292 99.2359C28.6941 99.2359 31.2601 98.2858 33.2587 96.3866L36.1175 93.6698L38.7976 95.0098C37.5356 97.029 36.8193 99.3969 36.8193 101.877V120.809C36.8193 122.167 37.9206 123.268 39.279 123.268C40.6374 123.268 41.7387 122.167 41.7387 120.809V101.877C41.7387 98.5006 43.8708 95.4565 47.0444 94.3024L63.0003 88.5005L69.6425 98.4642C70.4916 99.738 71.8523 100.555 73.3756 100.706C73.5455 100.723 73.7144 100.731 73.883 100.731C75.227 100.731 76.5142 100.202 77.4764 99.2398L81.5287 95.1876V120.809C81.5287 122.167 82.63 123.269 83.9884 123.269C85.3468 123.269 86.4481 122.167 86.4481 120.809V95.1876L90.5004 99.2398C91.4623 100.202 92.7495 100.731 94.0938 100.731C94.2621 100.731 94.4313 100.723 94.6008 100.706C96.1245 100.555 97.4852 99.7383 98.3343 98.4645L104.977 88.5011L120.932 94.303C124.106 95.4571 126.238 98.5013 126.238 101.878V120.809C126.238 122.168 127.339 123.269 128.698 123.269C130.056 123.269 131.157 122.168 131.157 120.809V101.878C131.157 98.458 129.799 95.2505 127.519 92.8784L128.127 92.7049C128.74 92.5298 129.576 92.29 130.416 91.8784L136.696 98.1585V120.809C136.696 122.168 137.797 123.269 139.156 123.269C140.514 123.269 141.615 122.168 141.615 120.809V98.1585L147.852 91.9221C148.183 92.0906 148.532 92.233 148.898 92.3376L159.057 95.24C161.376 95.9025 162.996 98.0497 162.996 100.461V120.809C162.996 122.168 164.097 123.269 165.455 123.269C166.814 123.269 167.915 122.168 167.915 120.809V100.461C167.915 95.8641 164.828 91.7715 160.409 90.5086ZM15.7798 86.1641C11.1788 84.5085 8.87097 82.3014 7.88578 81.0961C8.55744 79.3402 8.99297 77.3292 9.28781 75.2063C10.6442 78.4587 12.916 81.2352 15.7798 83.216V86.1641ZM29.8705 92.821C27.7726 94.8143 24.4861 94.814 22.3888 92.8207L20.1013 90.647C20.4873 89.9238 20.6995 89.1039 20.6995 88.245V85.6233C22.4154 86.1595 24.2395 86.4487 26.1298 86.4487C28.0179 86.4487 29.841 86.1582 31.5598 85.6249L31.5595 88.2447C31.5595 89.1039 31.7714 89.9241 32.1577 90.6476L29.8705 92.821ZM26.1305 81.5294C18.7855 81.5294 12.8104 75.5539 12.8104 68.2093C12.8104 66.8509 11.7091 65.7496 10.3507 65.7496C10.213 65.7496 10.0785 65.7637 9.947 65.7857C9.95422 65.5741 9.96111 65.3623 9.96832 65.1527C10.0231 63.4614 10.0759 61.8639 10.1733 60.4937C10.4875 56.0741 12.2535 52.0015 15.1461 49.0256C18.0647 46.0229 21.9654 44.3693 26.1298 44.3693C30.2943 44.3693 34.1947 46.0229 37.1135 49.0256C40.0061 52.0015 41.7722 56.0741 42.0864 60.4937C42.1834 61.8636 42.2366 63.4608 42.2923 65.1517C42.2972 65.297 42.3022 65.4443 42.3071 65.5905C39.6309 61.4674 35.498 58.4289 30.1578 56.713C25.2243 55.128 20.9812 55.2261 20.8021 55.2306C20.158 55.2487 19.5467 55.5183 19.0997 55.982L14.6617 60.5846C13.7189 61.5625 13.7471 63.1197 14.725 64.0626C15.703 65.0055 17.2602 64.9769 18.2031 63.9993L21.8959 60.1697C25.0761 60.3252 35.3074 61.515 39.2866 70.2771C38.2853 76.7339 32.7356 81.5294 26.1305 81.5294ZM36.4786 86.1723L36.4789 83.2387C39.3404 81.2686 41.6154 78.4974 42.9728 75.2204C43.2677 77.3384 43.7029 79.3448 44.3732 81.0968C43.3936 82.2906 41.0749 84.5174 36.4786 86.1723ZM60.1487 46.2682V40.1655C60.1487 39.7952 60.0651 39.4296 59.9041 39.096C58.3213 35.8184 57.5188 32.3407 57.5188 28.7594V23.4996C57.5188 13.2545 65.8539 4.91972 76.0987 4.91972H110.459V28.7597C110.459 32.341 109.656 35.8187 108.073 39.0963C107.912 39.4299 107.829 39.7956 107.829 40.1658V47.1694C107.829 53.8306 105.151 60.009 100.289 64.5667C99.6816 65.1353 99.0516 65.6686 98.4002 66.1655C98.3858 66.1753 98.372 66.1861 98.3579 66.1963C93.8029 69.6546 88.2237 71.3354 82.3971 70.9579C69.9212 70.1502 60.1487 59.3052 60.1487 46.2682ZM73.9981 95.7608C73.9811 95.7779 73.9414 95.8182 73.861 95.8097C73.781 95.8018 73.7495 95.7549 73.7361 95.7346L66.0864 84.2599L68.5481 81.6733L80.1529 89.6057L73.9981 95.7608ZM83.9887 86.2687L70.6687 77.1639V72.5725C74.1152 74.4356 77.9743 75.6008 82.0787 75.8665C82.7271 75.9085 83.3715 75.9291 84.014 75.9291C88.7172 75.9291 93.2437 74.8049 97.3088 72.6709V77.1639L83.9887 86.2687ZM94.2414 95.7352C94.2279 95.7556 94.1965 95.8025 94.1164 95.8103C94.0361 95.8205 93.9967 95.7782 93.9794 95.7615L87.8245 89.6067L99.4294 81.674L101.891 84.2606L94.2414 95.7352ZM139.156 93.6599L133.574 88.0784C133.671 87.636 133.726 87.1516 133.726 86.6173L133.726 85.5793C135.275 86.0877 136.907 86.3894 138.597 86.4399C138.786 86.4458 138.974 86.4484 139.163 86.4484C141.03 86.4484 142.852 86.1664 144.586 85.6282V86.6186C144.586 87.1093 144.648 87.59 144.764 88.0521L139.156 93.6599ZM148.431 77.769C145.824 80.2989 142.381 81.635 138.744 81.5228C131.626 81.3093 125.836 75.0397 125.836 67.5475V62.9492C125.836 62.5671 125.747 62.1906 125.576 61.8492L124.056 58.8103C123.5 57.6969 123.206 56.4506 123.206 55.2057V55.0591C123.206 49.1644 128.002 44.3689 133.896 44.3689H155.106V54.5849C155.106 56.2358 154.716 57.8891 153.978 59.3659L152.736 61.8492C152.565 62.1909 152.476 62.5671 152.476 62.9492V68.209C152.476 71.8428 151.04 75.2378 148.431 77.769Z" />
      <path
        d="M154.935 102.569C153.577 102.569 152.476 103.67 152.476 105.028V120.808C152.476 122.166 153.577 123.268 154.935 123.268C156.294 123.268 157.395 122.166 157.395 120.808V105.028C157.395 103.67 156.294 102.569 154.935 102.569Z" />
      <path
        d="M12.9796 105.82C11.6212 105.82 10.52 106.921 10.52 108.28V120.808C10.52 122.167 11.6212 123.268 12.9796 123.268C14.3381 123.268 15.4393 122.167 15.4393 120.808V108.28C15.4393 106.922 14.3381 105.82 12.9796 105.82Z" />
      <path
        d="M104.138 29.6505C94.8347 20.3476 75.3707 22.1261 67.4334 23.3225C64.9334 23.6993 63.1191 25.815 63.1191 28.3531V34.0196C63.1191 35.378 64.2204 36.4792 65.5788 36.4792C66.9372 36.4792 68.0385 35.378 68.0385 34.0196V28.3527C68.0385 28.2691 68.0936 28.1976 68.1671 28.1865C71.3374 27.7086 77.6287 26.9714 84.1469 27.4059C91.8172 27.9166 97.3728 29.842 100.659 33.1288C101.62 34.0894 103.177 34.0894 104.138 33.1288C105.098 32.1682 105.098 30.6107 104.138 29.6505Z" />
      <path
        d="M55.0591 107.829C53.7006 107.829 52.5994 108.93 52.5994 110.288V120.808C52.5994 122.167 53.7006 123.268 55.0591 123.268C56.4175 123.268 57.5187 122.167 57.5187 120.808V110.288C57.5187 108.93 56.4175 107.829 55.0591 107.829Z" />
      <path
        d="M112.918 107.829C111.56 107.829 110.459 108.93 110.459 110.288V120.808C110.459 122.167 111.56 123.268 112.918 123.268C114.277 123.268 115.378 122.167 115.378 120.808V110.288C115.378 108.93 114.277 107.829 112.918 107.829Z" />
    </symbol>
    <symbol id="i-road-3" viewBox="0 0 140 163">
      <path
        d="M124.993 103.04V44.9586C124.993 43.1548 123.518 41.9086 121.714 41.9086H109.022C107.218 41.9086 105.644 43.1548 105.644 44.9586V97.3337C103.676 97.3993 101.38 97.6617 99.4126 98.1536V62.0781C99.4126 60.2743 97.8712 58.9625 96.0675 58.9625H83.3754C81.5717 58.9625 80.063 60.2415 80.063 62.0781V111.042C76.1275 116.519 74.0942 123.111 74.0942 129.867C74.0942 147.807 88.6884 162.368 106.628 162.368C124.567 162.368 139.161 147.774 139.161 129.867C139.129 119.143 133.848 109.042 124.993 103.04ZM118.434 48.4678V99.5638C116.467 98.7767 114.499 98.2192 112.203 97.8584V48.4678H118.434ZM92.8534 65.5216V100.449C90.5577 101.466 88.59 102.745 86.6222 104.188V65.5216H92.8534ZM106.628 155.809C92.3287 155.809 80.6862 144.166 80.6862 129.867C80.6862 123.898 82.6539 118.29 86.3927 113.633C89.1147 110.222 92.6895 107.566 96.7234 105.926C97.1169 105.861 97.4777 105.697 97.8056 105.5C100.626 104.45 103.611 103.926 106.661 103.926C107.349 103.926 108.005 103.958 108.694 104.024H108.727C112.662 104.319 116.499 105.533 119.877 107.566C127.716 112.223 132.602 120.75 132.602 129.867C132.569 144.166 120.927 155.809 106.628 155.809Z" />
      <path
        d="M47.923 88.4787C47.923 86.6749 46.4472 85.1991 44.6434 85.1991H31.853C30.0492 85.1991 28.5734 86.6749 28.5734 88.4787V139.968C28.5734 141.772 30.0492 143.248 31.853 143.248H44.6434C46.4472 143.248 47.923 141.772 47.923 139.968V88.4787ZM41.3638 137.017H35.1326V91.7583H41.3638V137.017Z" />
      <path
        d="M73.8317 80.9357C73.8317 79.1319 72.3559 77.6561 70.5521 77.6561H57.7617C55.9579 77.6561 54.4821 79.1319 54.4821 80.9357V140.296C54.4821 142.1 55.9579 143.576 57.7617 143.576H70.5521C72.3559 143.576 73.8317 142.1 73.8317 140.296V80.9357ZM67.2725 137.017H61.0413V84.2153H67.2725V137.017Z" />
      <path
        d="M22.0143 116.683C22.0143 114.88 20.5385 113.404 18.7347 113.404H5.94428C4.1405 113.404 2.66469 114.88 2.66469 116.683V139.968C2.66469 141.772 4.1405 143.248 5.94428 143.248H18.7347C20.5385 143.248 22.0143 141.772 22.0143 139.968V116.683ZM15.4551 137.017H9.22387V119.963H15.4551V137.017Z" />
      <path
        d="M5.6163 97.5304L66.2888 36.858L78.7184 49.386C79.3416 50.0091 80.1614 50.4355 81.0469 50.4355C81.9324 50.4355 82.7523 49.9764 83.3754 49.386L121.189 11.5067L121.156 26.1009C121.156 27.9047 122.632 29.4789 124.436 29.4789C126.24 29.4789 127.716 27.9047 127.716 26.1009L127.748 3.60292C127.748 2.71743 127.42 1.89753 126.797 1.27441C126.174 0.651282 125.354 0.290527 124.469 0.290527L102.036 0.323323C100.233 0.323323 98.7567 1.79914 98.7567 3.60292C98.7567 5.40669 100.233 6.88251 102.036 6.88251L116.565 6.84971L81.0141 42.3021L68.5845 29.9708C67.9614 29.3477 67.1415 29.1181 66.256 29.1181C65.3705 29.1181 64.5506 29.3805 63.9275 29.9708L0.959281 92.939C-0.31976 94.2181 -0.31976 96.2842 0.959281 97.5632C1.6152 98.2192 2.4351 98.5143 3.28779 98.5143C4.14049 98.5143 4.96038 98.1536 5.6163 97.5304Z" />
      <path
        d="M118.298 117.408C120.338 119.399 121.358 121.93 121.358 124.998C121.358 128.066 120.338 130.588 118.298 132.563C116.258 134.538 113.556 135.526 110.193 135.526H102.26V149.286H96.9721V114.42H110.193C113.556 114.42 116.258 115.417 118.298 117.408ZM114.405 129.283C115.515 128.253 116.07 126.826 116.07 124.998C116.07 123.17 115.515 121.741 114.405 120.713C113.295 119.685 111.793 119.171 109.901 119.171H102.261V130.826H109.901C111.794 130.826 113.295 130.311 114.405 129.283Z" />
      <path clip-rule="evenodd" d="M95.7639 138.151H115.333V143.203H95.7639V138.151Z" />
    </symbol>

    <symbol id="i-road-4" viewBox="0 0 153 168">
      <path
        d="M83.3961 12.0407C82.0373 12.0407 80.9364 10.9397 80.9364 9.581V2.45969C80.9364 1.10096 82.0373 0 83.3961 0C84.7548 0 85.8558 1.10096 85.8558 2.45969V9.581C85.8558 10.9394 84.7548 12.0407 83.3961 12.0407Z" />
      <path
        d="M57.024 18.3715C56.394 18.3715 55.764 18.1311 55.2835 17.65L50.2507 12.6113C49.2907 11.65 49.2917 10.0929 50.253 9.13293C51.2139 8.17299 52.7714 8.17398 53.7313 9.13522L58.7642 14.174C59.7241 15.1352 59.7231 16.6924 58.7619 17.6523C58.2821 18.1315 57.653 18.3715 57.024 18.3715Z" />
      <path
        d="M109.759 18.3715C109.13 18.3715 108.501 18.1318 108.021 17.6523C107.06 16.6921 107.059 15.1349 108.019 14.174L113.052 9.13522C114.012 8.17398 115.569 8.17299 116.53 9.13293C117.491 10.0932 117.492 11.6503 116.532 12.6113L111.499 17.65C111.019 18.1308 110.389 18.3715 109.759 18.3715Z" />
      <path
        d="M132.347 125.992L123.822 117.458C123.78 117.415 123.745 117.385 123.713 117.359C123.279 116.973 122.708 116.736 122.081 116.736C121.445 116.736 120.867 116.98 120.431 117.376C120.411 117.392 120.39 117.412 120.37 117.431C120.36 117.441 120.35 117.449 120.34 117.458L111.808 125.991C110.847 126.952 110.847 128.509 111.808 129.47C112.289 129.95 112.918 130.19 113.548 130.19C114.177 130.19 114.807 129.95 115.287 129.469L119.622 125.134V144.389C119.622 145.748 120.723 146.849 122.081 146.849C123.44 146.849 124.541 145.748 124.541 144.389V125.139L128.866 129.468C129.346 129.949 129.976 130.189 130.606 130.189C131.235 130.189 131.864 129.95 132.345 129.47C133.305 128.511 133.306 126.953 132.347 125.992Z" />
      <path
        d="M37.7144 107.607C37.7069 107.607 37.7 107.607 37.6928 107.607C31.4458 107.607 26.3568 112.687 26.3447 118.94C26.3329 125.203 31.4123 130.308 37.6632 130.32H37.7072C40.7185 130.32 43.5511 129.151 45.6881 127.027C47.8421 124.885 49.0316 122.03 49.0375 118.987C49.0493 112.724 43.9699 107.619 37.7144 107.607ZM42.2196 123.538C41.0111 124.74 39.4096 125.401 37.7026 125.401C37.6944 125.401 37.6855 125.401 37.6777 125.401C34.1347 125.394 31.2579 122.5 31.2644 118.95C31.2713 115.406 34.1541 112.527 37.6931 112.527H37.7052C41.2482 112.534 44.125 115.428 44.1185 118.978C44.1149 120.705 43.4402 122.324 42.2196 123.538Z" />
      <path
        d="M150.533 120.994C150.051 119.725 148.631 119.082 147.362 119.564C146.089 120.043 145.45 121.463 145.929 122.732C149.474 132.118 147.188 142.761 140.111 149.848C135.293 154.669 128.888 157.325 122.076 157.325C115.265 157.325 108.86 154.669 104.042 149.848C103.314 149.12 102.638 148.356 102.022 147.565C101.582 147.011 101.172 146.44 100.788 145.86C100.126 144.86 99.5455 143.82 99.0437 142.754C99.0241 142.718 99.0077 142.682 98.9913 142.646C96.8563 138.084 96.1413 133.017 96.8464 128.117C97.0891 126.448 97.4925 124.798 98.0631 123.198C98.6305 121.604 99.3586 120.053 100.254 118.577C101.294 116.852 102.556 115.225 104.042 113.74C105.783 111.995 107.738 110.532 109.843 109.378C113.549 107.341 117.731 106.262 122.076 106.262C128.888 106.262 135.293 108.915 140.111 113.74C141.072 114.701 142.63 114.701 143.59 113.74C144.551 112.782 144.551 111.224 143.59 110.263C140.718 107.387 137.369 105.157 133.725 103.645C130.082 102.133 126.14 101.343 122.076 101.343C119.781 101.343 117.521 101.595 115.333 102.087C115.819 101.497 116.308 100.903 116.799 100.31C124.123 91.4679 131.692 82.3244 131.672 65.628C131.659 52.4014 127.202 41.0245 118.777 32.7271C109.948 24.0296 97.0465 19.1594 83.3968 19.3365C83.1312 19.3332 82.8688 19.33 82.6064 19.33C67.9598 19.33 54.6085 25.0102 45.8783 34.9867C44.9829 36.0067 45.0879 37.5612 46.1078 38.4565C47.1311 39.3519 48.6856 39.2469 49.5809 38.227C57.5241 29.1523 69.8488 24.0657 83.3607 24.2559H83.4296C95.7937 24.0886 107.42 28.4472 115.327 36.233C122.791 43.5858 126.743 53.7526 126.753 65.6312C126.773 80.5534 120.089 88.6278 113.012 97.1711C110.745 99.9063 108.453 102.674 106.39 105.688C104.294 106.954 102.336 108.486 100.562 110.263C96.8366 113.995 94.2818 118.459 92.8945 123.198H85.4006V77.5811H90.5089C91.8677 77.5811 92.9686 76.4801 92.9686 75.1214C92.9686 73.7627 91.8677 72.6617 90.5089 72.6617H75.085C73.7263 72.6617 72.6253 73.7627 72.6253 75.1214C72.6253 76.4801 73.7263 77.5811 75.085 77.5811H80.4812V123.198H67.4809C66.9136 119.243 65.8116 115.773 64.3653 112.628C64.0702 111.975 63.7553 111.339 63.4306 110.716C60.7676 105.619 57.2388 101.356 53.7722 97.1711C53.3197 96.6267 52.8704 96.0823 52.4243 95.5379C48.7938 91.1268 45.3798 86.7158 43.0611 81.2848H43.0578C41.1852 76.9065 40.0209 71.8658 40.0308 65.6312C40.0373 58.7671 41.336 52.4965 43.8876 46.9933C44.4582 45.7602 43.9236 44.2975 42.6905 43.7269C41.4574 43.1562 39.9947 43.6908 39.424 44.9239C36.5708 51.0764 35.1179 58.0423 35.1114 65.628C35.1015 71.7215 36.1051 76.8081 37.7416 81.2421L33.0747 81.2323C29.7722 81.2323 27.0862 83.9183 27.0862 87.211L27.0829 88.9787C26.0794 89.346 25.0988 89.7625 24.1444 90.2216L22.8752 88.9459C20.5434 86.6141 16.7489 86.6075 14.4139 88.9295C14.4106 88.9328 14.4106 88.9328 14.4106 88.9328L7.78252 95.5477C6.65106 96.6759 6.02466 98.1779 6.02138 99.7817C6.0181 101.382 6.63795 102.884 7.76285 104.012L9.21243 105.465C8.79264 106.37 8.41877 107.295 8.09081 108.236L6.00826 108.23C2.70571 108.23 0.0197292 110.913 0.0197292 114.209L5.17984e-05 123.572C-0.00650739 125.169 0.610056 126.678 1.74479 127.812C2.87297 128.95 4.37503 129.577 5.96563 129.577L8.22527 129.58C8.54995 130.469 8.91398 131.341 9.31409 132.197L7.70709 133.804C6.57563 134.929 5.94923 136.434 5.94923 138.035C5.94595 139.635 6.5658 141.141 7.68742 142.265L14.3024 148.923C16.6341 151.245 20.4286 151.248 22.7604 148.93L24.3707 147.319C25.2201 147.726 26.0859 148.09 26.9649 148.415V150.671C26.9517 153.97 29.6246 156.669 32.9304 156.686L42.3068 156.702C45.5929 156.702 48.2789 154.026 48.2953 150.727L48.2986 148.638C49.2333 148.313 50.1516 147.942 51.0535 147.533L52.5063 148.992C54.8348 151.324 58.6326 151.33 60.971 149.002L62.4599 147.516C62.6993 147.549 62.9485 147.565 63.1978 147.565H66.0051V155.276C66.0051 162.245 71.6657 167.915 78.6217 167.915H88.1588C95.1213 167.915 100.788 162.245 100.788 155.276V153.544C106.508 159.159 114.054 162.245 122.076 162.245C130.203 162.245 137.845 159.077 143.59 153.324C152.032 144.873 154.757 132.184 150.533 120.994ZM57.4618 128.931V141.823C57.4618 142.892 57.7537 143.895 58.2686 144.755L57.5011 145.519C57.0912 145.926 56.3959 145.926 55.9893 145.519L53.2967 142.813C52.5358 142.046 51.365 141.869 50.4107 142.37C48.7381 143.249 46.9769 143.954 45.1732 144.469C44.1171 144.768 43.3858 145.732 43.3858 146.827L43.3759 150.707C43.3727 151.291 42.884 151.783 42.3101 151.783L32.9468 151.766C32.3696 151.763 31.8842 151.271 31.8842 150.684V146.65C31.8842 145.565 31.1759 144.61 30.1395 144.296C28.398 143.768 26.6959 143.049 25.0889 142.161C24.7151 141.954 24.3084 141.856 23.9017 141.856C23.2655 141.856 22.6358 142.102 22.1635 142.574L19.2873 145.443C18.8774 145.85 18.1821 145.847 17.782 145.447L11.1736 138.792C10.9047 138.527 10.8653 138.209 10.8653 138.045C10.8686 137.877 10.908 137.559 11.1835 137.287L14.0531 134.414C14.8205 133.643 14.9943 132.46 14.4762 131.505C13.5972 129.885 12.8856 128.173 12.3543 126.415C12.0427 125.379 11.0884 124.667 10.0061 124.667L5.96891 124.657C5.59832 124.657 5.34579 124.461 5.231 124.343C5.11294 124.228 4.91616 123.972 4.91944 123.588L4.93912 114.212C4.93912 113.628 5.41794 113.149 6.00171 113.149L9.88146 113.159H9.88802C10.9867 113.159 11.9542 112.428 12.2559 111.368C12.7675 109.565 13.4759 107.807 14.3679 106.144C14.8796 105.19 14.709 104.012 13.9449 103.245L11.2491 100.539C10.9801 100.27 10.9408 99.9522 10.9408 99.7882C10.9408 99.6242 10.9834 99.3061 11.2556 99.0339L17.8837 92.4157C18.3002 92.0025 18.9791 92.0057 19.389 92.419L21.934 94.9738C22.7145 95.7576 23.9181 95.9249 24.8823 95.3837C26.5615 94.4425 28.3685 93.675 30.251 93.1011C31.2874 92.7896 31.9958 91.8352 31.9958 90.7562L32.0056 87.2175C32.0056 86.6305 32.4844 86.1517 33.0715 86.1517L39.9225 86.1648C42.7135 91.5302 46.38 95.9576 49.9843 100.31C55.599 107.095 60.9283 113.533 62.5058 123.244C59.669 123.585 57.4618 126.002 57.4618 128.931ZM63.1978 142.646C62.7551 142.646 62.3812 142.269 62.3812 141.823V128.931C62.3812 128.583 62.6107 128.281 62.9223 128.167C63.0076 128.134 63.0994 128.117 63.1978 128.117H91.8877C91.3006 132.997 91.8877 137.995 93.6521 142.646H63.1978ZM95.8691 155.276C95.8691 159.533 92.4091 162.996 88.1588 162.996H78.6217C74.3779 162.996 70.9245 159.533 70.9245 155.276V147.565H95.8691V155.276Z" />
    </symbol>



  </defs>
</svg>