<svg width="136" height="136" viewBox="0 0 136 136" fill="none" xmlns="http://www.w3.org/2000/svg">
<path fill-rule="evenodd" clip-rule="evenodd" d="M67.83 135.669C105.294 135.669 135.661 105.295 135.661 67.8388C135.661 30.3748 105.286 0.00878909 67.831 0.00878909C30.367 0.00778909 1.57988e-06 30.3818 1.57988e-06 67.8378C-0.00799842 105.294 30.367 135.668 67.83 135.668V135.669ZM67.988 80.0568C48.557 70.1968 36.132 55.3888 31.045 38.1168C35.412 32.3188 40.922 27.4798 47.308 24.0138C45.852 44.8008 56.398 64.2158 73.116 77.0538L72.843 77.2028C71.396 77.9728 69.353 79.0558 67.988 80.0568ZM91.555 59.1368C93.805 48.3418 89.023 35.2388 86.195 30.8468C100.133 38.0428 119.613 58.4168 110.522 76.7398C104.5 88.8828 93.292 93.4988 86.74 96.1948C85.4 96.7498 84.25 97.2208 83.39 97.6598C78.286 100.249 68.302 107.569 72.008 118.861C61.337 115.188 57.738 106.304 61.238 98.2798C64.621 90.4878 69.882 86.5908 75.143 82.6948C81.926 77.6658 88.733 72.6198 91.555 59.1368ZM61.378 85.5398C45.984 83.8858 32.426 77.5658 22.549 67.9118C23.649 72.3378 25.486 76.6638 27.579 80.7258C37.687 85.7218 48.333 87.7398 60.104 86.9128C60.294 86.7478 60.477 86.5238 60.667 86.3008C60.89 86.0358 61.122 85.7628 61.378 85.5398ZM58.368 89.0388C48.639 91.0328 39.375 89.9158 30.54 86.0358C31.194 86.8878 31.765 87.6658 32.319 88.4098C33.344 89.8078 34.287 91.0988 35.569 92.5798C43.122 93.6138 50.302 93.5138 57.119 90.7428C57.325 90.5198 57.656 90.0478 57.937 89.6348C58.103 89.3948 58.261 89.1708 58.368 89.0388ZM39.606 97.0388C40.326 97.7908 41.071 98.5688 42.129 99.2388C46.389 99.0808 51.526 98.0228 54.686 95.0938L55.53 93.2828C50.476 95.5898 44.197 96.7228 38.58 96.0038C38.936 96.3268 39.276 96.6828 39.606 97.0388ZM65.845 81.6608C65.208 82.1238 64.158 82.9508 63.678 83.4468C45.885 80.4438 31.202 71.7258 21.606 59.3508C22.5771 54.2928 24.2973 49.4081 26.71 44.8578C32.815 60.8978 46.596 74.1008 65.845 81.6608Z" fill="#0128D2"/>
</svg>
