<svg width="494" height="494" viewBox="0 0 494 494" fill="none" xmlns="http://www.w3.org/2000/svg">
<path fill-rule="evenodd" clip-rule="evenodd" d="M247 494C383.422 494 494 383.392 494 247C494 110.578 383.392 0 247 0C110.578 0 6.1509e-06 110.608 6.1509e-06 247C-0.0301158 383.392 110.578 494 247 494ZM113.048 138.772C131.573 201.666 176.816 255.585 247.572 291.49C252.504 287.874 259.868 283.96 265.132 281.163L265.254 281.098L266.248 280.556C205.371 233.807 166.966 163.11 172.267 87.414C149.013 100.035 128.952 117.656 113.048 138.772ZM313.871 112.295C324.172 128.289 341.583 176.003 333.39 215.312C323.12 264.403 298.336 282.779 273.64 301.09L273.628 301.099C254.47 315.287 235.313 329.474 222.993 357.849C210.251 387.067 223.354 419.418 262.212 432.792C248.717 391.676 285.074 365.018 303.659 355.59C306.652 354.065 310.606 352.43 315.207 350.528L315.859 350.258C339.715 340.438 380.531 323.63 402.459 279.411C435.563 212.691 364.626 138.501 313.871 112.295ZM82.1124 247.271C118.078 282.423 167.448 305.437 223.505 311.461C222.571 312.274 221.728 313.268 220.914 314.232C220.222 315.046 219.559 315.859 218.866 316.461C176.003 319.473 137.236 312.124 100.427 293.93C92.8057 279.14 86.1187 263.386 82.1124 247.271ZM111.21 313.268C143.38 327.395 177.117 331.462 212.54 324.203C212.149 324.685 211.577 325.498 210.974 326.371C209.95 327.877 208.745 329.594 207.992 330.408C183.172 340.499 157.026 340.86 129.524 337.095C124.943 331.804 121.551 327.18 117.896 322.199L117.686 321.913C115.668 319.202 113.59 316.371 111.21 313.268ZM153.411 361.343C149.555 358.903 146.845 356.072 144.224 353.331C143.019 352.035 141.784 350.74 140.489 349.565C160.942 352.186 183.804 348.059 202.209 339.655L199.136 346.252C187.63 356.915 168.924 360.771 153.411 361.343ZM231.879 303.84C233.626 302.033 237.451 299.021 239.771 297.334C169.677 269.802 119.494 221.728 97.2638 163.321C88.6188 179.617 82.2932 197.329 78.6785 216.095C113.62 261.157 167.086 292.906 231.879 303.84Z" fill="#D9D9D9" fill-opacity="0.3"/>
</svg>
