<svg width="237" height="74" viewBox="0 0 237 74" fill="none" xmlns="http://www.w3.org/2000/svg">
<path fill-rule="evenodd" clip-rule="evenodd" d="M36.6058 73.2164C56.8237 73.2164 73.2115 56.8242 73.2115 36.6106C73.2115 16.3927 56.8193 0.00488281 36.6058 0.00488281C16.3878 0.00488281 9.11572e-07 16.3971 9.11572e-07 36.6106C-0.0044632 56.8242 16.3878 73.2164 36.6058 73.2164ZM36.6906 43.2041C26.2044 37.8829 19.4993 29.8921 16.7538 20.5711C19.1109 17.4417 22.084 14.8302 25.5303 12.9598C24.7446 24.1781 30.4363 34.6554 39.4583 41.5837L39.311 41.664C38.5298 42.0792 37.4272 42.664 36.6906 43.2041ZM49.4088 31.9144C50.6231 26.0887 48.0428 19.0176 46.5161 16.6471C54.0381 20.5309 64.5511 31.526 59.6451 41.414C56.3952 47.9674 50.3463 50.4583 46.8107 51.9136C46.0875 52.2127 45.467 52.4672 45.0028 52.7038C42.2484 54.101 36.8602 58.0518 38.8601 64.1453C33.1014 62.1632 31.1595 57.3688 33.0479 53.0386C34.8737 48.8334 37.7129 46.7308 40.552 44.6282C44.2126 41.914 47.8866 39.1909 49.4088 31.9144ZM33.1237 46.1639C24.816 45.271 17.4993 41.8604 12.1692 36.6508C12.7629 39.0391 13.7539 41.3739 14.8834 43.5657C20.3385 46.2621 26.0838 47.3513 32.4363 46.9049C32.5389 46.8156 32.6372 46.6951 32.7398 46.5745C32.8604 46.4317 32.9854 46.2844 33.1237 46.1639ZM31.4988 48.0522C26.249 49.128 21.2492 48.5254 16.4815 46.4317C16.8342 46.8915 17.1422 47.3111 17.4413 47.7129C17.9949 48.4673 18.5038 49.1637 19.1957 49.9628C23.2714 50.5208 27.1463 50.4673 30.8247 48.9718C30.9363 48.8512 31.1149 48.5968 31.2667 48.3736C31.356 48.2441 31.4408 48.1236 31.4988 48.0522ZM21.3742 52.369C21.7626 52.7752 22.1643 53.1948 22.7357 53.5564C25.0348 53.4716 27.807 52.9002 29.5123 51.3199L29.9676 50.3423C27.24 51.5877 23.8518 52.1993 20.8206 51.811C21.0126 51.9851 21.1956 52.177 21.3742 52.369ZM35.5344 44.0702C35.1906 44.3202 34.6237 44.7666 34.3648 45.0344C24.7625 43.414 16.8386 38.7088 11.6603 32.0305C12.196 29.2493 13.1334 26.6244 14.4146 24.2093C17.7092 32.8652 25.1464 39.99 35.5344 44.0702Z" fill="white"/>
<path d="M235.165 5.76758L200.162 69.2384H201.997L237 5.76758H235.165Z" fill="white"/>
<path d="M195.399 42.2484C194.845 42.2484 194.435 42.1101 194.087 41.9002C193.81 41.6904 193.671 41.3467 193.671 40.8601H194.497C194.497 41.0699 194.569 41.2753 194.703 41.4137C194.841 41.552 195.046 41.6235 195.323 41.6235C195.6 41.6235 195.805 41.5565 195.944 41.4137C196.082 41.2753 196.149 41.1369 196.22 40.8601H197.046C197.046 41.2753 196.908 41.6235 196.564 41.9002C196.363 42.1101 195.953 42.2484 195.399 42.2484ZM192.43 42.6636H193.671V47.3688L197.261 42.6636H198.435V49.3107H197.194V44.6055L193.604 49.3107H192.43V42.6636ZM184.636 42.6636H185.877V47.3688L189.466 42.6636H190.64V49.3107H189.399V44.6055L185.81 49.3107H184.636V42.6636ZM180.493 46.5429H179.252V49.3107H178.011V42.6636H179.252V45.4314H180.493L182.426 42.6636H183.739L181.462 45.8465L183.81 49.2392H182.431L180.493 46.5429ZM174.284 49.4491C173.592 49.4491 173.043 49.3107 172.489 49.0339C171.936 48.7571 171.525 48.342 171.248 47.7884C170.971 47.3018 170.766 46.6813 170.766 46.0563C170.766 45.4314 170.904 44.8109 171.248 44.3243C171.525 43.8377 172.007 43.4225 172.489 43.0788C173.043 42.802 173.663 42.6636 174.284 42.6636C174.837 42.6636 175.319 42.7306 175.801 42.9404C176.217 43.1457 176.632 43.4225 176.904 43.7707L176.078 44.5296C175.596 44.0475 175.043 43.7707 174.284 43.7707C173.802 43.7707 173.458 43.8377 173.043 44.0475C172.699 44.2528 172.422 44.5296 172.217 44.8778C172.011 45.226 171.94 45.6412 171.94 46.0563C171.94 46.4715 172.011 46.8867 172.217 47.2349C172.422 47.5786 172.699 47.8554 173.043 48.0652C173.386 48.2705 173.802 48.342 174.284 48.342C174.976 48.342 175.596 48.0652 176.078 47.5786L176.904 48.342C176.627 48.6902 176.212 48.9669 175.73 49.1723C175.319 49.3107 174.837 49.4491 174.284 49.4491ZM168.556 45.851C168.971 45.9894 169.248 46.1992 169.52 46.476C169.726 46.7527 169.864 47.1009 169.864 47.4447C169.864 47.8598 169.726 48.208 169.449 48.4848C169.172 48.7616 168.829 49.0384 168.413 49.1768C167.998 49.3151 167.516 49.3866 167.034 49.3866C166.619 49.3866 166.137 49.3151 165.722 49.1768C165.306 49.0384 164.891 48.9 164.48 48.6232L164.896 47.7215C165.172 47.9313 165.516 48.0697 165.86 48.208C166.204 48.3464 166.552 48.3464 166.896 48.3464C167.378 48.3464 167.793 48.275 168.137 48.0697C168.48 47.8598 168.619 47.5831 168.619 47.2393C168.619 46.9626 168.48 46.7527 168.275 46.5474C168.07 46.409 167.721 46.342 167.311 46.342H165.793V45.3733H167.244C167.588 45.3733 167.864 45.3064 168.07 45.1635C168.275 45.0251 168.413 44.8153 168.413 44.5385C168.413 44.2618 168.275 43.985 167.998 43.8466C167.721 43.7082 167.378 43.5698 166.896 43.5698C166.619 43.5698 166.275 43.6368 165.998 43.7082C165.655 43.7796 165.378 43.918 165.101 44.0564L164.686 43.0877C165.03 42.8779 165.378 42.744 165.788 42.6725C166.204 42.6011 166.547 42.5342 166.963 42.5342C167.445 42.5342 167.927 42.6011 168.342 42.744C168.757 42.8824 169.101 43.0877 169.306 43.3645C169.583 43.6412 169.65 43.9895 169.65 44.3332C169.65 44.6814 169.579 44.9582 169.373 45.1635C169.11 45.5742 168.833 45.7126 168.556 45.851ZM161.726 46.8197L160.485 43.9136L159.244 46.8197H161.726ZM162.141 47.7884H158.829L158.208 49.3107H156.967L159.936 42.6636H161.177L164.146 49.3107H162.833L162.141 47.7884ZM153.655 46.5429H152.414V49.3107H151.173V42.6636H152.414V45.4314H153.655L155.588 42.6636H156.9L154.624 45.8465L156.967 49.2392H155.588L153.655 46.5429ZM147.307 48.4134C148.204 48.4134 148.619 48.0652 148.619 47.4447C148.619 46.8197 148.204 46.476 147.307 46.476H145.446V48.4134H147.307ZM145.374 45.5028H147.03C147.445 45.5028 147.722 45.4314 147.928 45.293C148.133 45.1546 148.271 44.8778 148.271 44.601C148.271 44.3243 148.133 44.0475 147.928 43.9091C147.722 43.7707 147.445 43.6323 147.03 43.6323H145.374V45.5028ZM148.548 45.851C148.963 45.9894 149.307 46.1278 149.512 46.4045C149.718 46.6813 149.856 47.0295 149.856 47.4402C149.856 47.9938 149.651 48.4804 149.236 48.8241C148.82 49.1723 148.2 49.3107 147.374 49.3107H144.2V42.6636H147.169C147.928 42.6636 148.481 42.802 148.892 43.0788C149.307 43.3555 149.512 43.7707 149.512 44.3243C149.512 44.6725 149.445 44.9492 149.236 45.226C149.097 45.5742 148.825 45.7126 148.548 45.851ZM140.821 46.8197L139.58 43.9136L138.339 46.8197H140.821ZM141.231 47.7884H137.919L137.298 49.3107H136.057L139.026 42.6636H140.267L143.236 49.3107H141.923L141.231 47.7884ZM132.745 46.5429H131.504V49.3107H130.263V42.6636H131.504V45.4314H132.745L134.678 42.6636H135.991L133.714 45.8465L136.062 49.2392H134.683L132.745 46.5429ZM126.259 46.1947H128.879V47.1634H126.259V46.1947ZM121.705 48.342C122.12 48.342 122.531 48.2705 122.879 48.0652C123.223 47.8554 123.5 47.5786 123.705 47.2349C123.911 46.8867 123.982 46.4715 123.982 46.0563C123.982 45.6412 123.915 45.226 123.705 44.8778C123.5 44.5296 123.223 44.2528 122.879 44.0475C122.536 43.8377 122.12 43.7707 121.705 43.7707C121.29 43.7707 120.879 43.8377 120.531 44.0475C120.188 44.2528 119.911 44.5296 119.701 44.8778C119.496 45.226 119.424 45.6412 119.424 46.0563C119.424 46.4715 119.496 46.8867 119.701 47.2349C119.906 47.5786 120.183 47.8554 120.531 48.0652C120.879 48.2705 121.295 48.342 121.705 48.342ZM121.705 49.4491C121.013 49.4491 120.393 49.3107 119.911 49.0339C119.357 48.7571 118.947 48.342 118.67 47.7884C118.393 47.2349 118.188 46.6813 118.188 46.0563C118.188 45.4314 118.326 44.8109 118.67 44.3243C118.947 43.7707 119.429 43.4225 119.911 43.0788C120.464 42.802 121.085 42.6636 121.705 42.6636C122.397 42.6636 123.018 42.802 123.5 43.0788C124.053 43.3555 124.464 43.7707 124.741 44.3243C125.018 44.8064 125.223 45.4314 125.223 46.0563C125.223 46.6813 125.085 47.3018 124.741 47.7884C124.464 48.2705 123.982 48.6902 123.5 49.0339C123.018 49.3107 122.397 49.4491 121.705 49.4491ZM114.531 46.4045C115.085 46.4045 115.496 46.2661 115.773 46.0563C116.049 45.8465 116.188 45.5028 116.188 45.0876C116.188 44.6725 116.049 44.3243 115.773 44.1189C115.496 43.9091 115.081 43.7707 114.531 43.7707H113.081V46.4001H114.531V46.4045ZM114.598 42.6636C115.152 42.6636 115.701 42.7306 116.116 42.9404C116.531 43.1457 116.875 43.4225 117.081 43.7707C117.286 44.1189 117.424 44.5296 117.424 45.0162C117.424 45.5028 117.286 45.918 117.081 46.2617C116.875 46.6099 116.527 46.8867 116.116 47.092C115.701 47.3018 115.219 47.3688 114.598 47.3688H113.081V49.3062H111.84V42.6591H114.598V42.6636ZM110.46 48.2705V49.3107H105.492V42.6636H110.322V43.7037H106.733V45.4358H109.907V46.476H106.733V48.275H110.46V48.2705ZM101.559 48.4134C102.456 48.4134 102.871 48.0652 102.871 47.4447C102.871 46.8197 102.456 46.476 101.559 46.476H99.6972V48.4134H101.559ZM99.6928 45.5028H101.349C101.764 45.5028 102.041 45.4314 102.246 45.293C102.452 45.1546 102.59 44.8778 102.59 44.601C102.59 44.3243 102.452 44.0475 102.246 43.9091C102.041 43.7707 101.764 43.6323 101.349 43.6323H99.6928V45.5028ZM102.8 45.851C103.215 45.9894 103.559 46.1278 103.764 46.4045C103.969 46.6813 104.108 47.0295 104.108 47.4402C104.108 47.9938 103.902 48.4804 103.487 48.8241C103.072 49.1723 102.452 49.3107 101.626 49.3107H98.4518V42.6636H101.42C102.179 42.6636 102.733 42.802 103.144 43.0788C103.559 43.3555 103.764 43.7707 103.764 44.3243C103.764 44.6725 103.697 44.9492 103.487 45.226C103.42 45.5742 103.144 45.7126 102.8 45.851ZM97.0723 48.2705V49.3107H92.1038V42.6636H96.9339V43.7037H93.3448V45.4358H96.5902V46.476H93.4162V48.275H97.0723V48.2705ZM88.3807 49.4491C87.6888 49.4491 87.1397 49.3107 86.5861 49.0339C86.0326 48.7571 85.6219 48.342 85.3451 47.7884C85.0683 47.2349 84.863 46.6813 84.863 46.0563C84.863 45.4314 85.0014 44.8109 85.3451 44.3243C85.6219 43.8377 86.104 43.4225 86.5861 43.0788C87.1397 42.802 87.7602 42.6636 88.3807 42.6636C88.9343 42.6636 89.4164 42.7306 89.8985 42.9404C90.3137 43.1457 90.7288 43.4225 91.0011 43.7707L90.1753 44.5296C89.6932 44.0475 89.1396 43.7707 88.3807 43.7707C87.8986 43.7707 87.5504 43.8377 87.1397 44.0475C86.7959 44.2528 86.5192 44.5296 86.3138 44.8778C86.1085 45.226 86.037 45.6412 86.037 46.0563C86.037 46.4715 86.1085 46.8867 86.3138 47.2349C86.5192 47.5786 86.7959 47.8554 87.1397 48.0652C87.4834 48.2705 87.8986 48.342 88.3807 48.342C89.0726 48.342 89.6932 48.0652 90.1753 47.5786L91.0011 48.342C90.7244 48.6902 90.3092 48.9669 89.8271 49.1723C89.4119 49.3107 88.9298 49.4491 88.3807 49.4491Z" fill="white"/>
<path d="M159.449 67.1045H157.311V72.7114H156.07V67.1045H153.86V66.0643H159.449V67.1045ZM153.307 71.6713V72.7114H148.338V66.0643H153.168V67.1045H149.579V68.8366H152.753V69.8767H149.579V71.6757H153.307V71.6713ZM147.307 67.1045H145.097V72.7114H143.856V67.1045H141.646V66.0643H147.236V67.1045H147.307ZM134.745 66.0643H135.986V70.7695L139.575 66.0643H140.749V72.7114H139.508V68.0062L135.919 72.7114H134.745V66.0643ZM130.95 72.7784C130.259 72.7784 129.709 72.64 129.156 72.3632C128.602 72.0864 128.187 71.6713 127.915 71.1177C127.638 70.6311 127.433 70.0106 127.433 69.3857C127.433 68.7607 127.571 68.1402 127.915 67.6536C128.192 67.167 128.674 66.7518 129.156 66.4081C129.705 66.1313 130.33 65.9929 130.95 65.9929C131.504 65.9929 131.986 66.0643 132.468 66.2697C132.883 66.4795 133.294 66.7563 133.571 67.1L132.745 67.8634C132.263 67.3768 131.709 67.1 130.95 67.1C130.468 67.1 130.12 67.167 129.709 67.3768C129.366 67.5866 129.089 67.8634 128.884 68.2071C128.678 68.5553 128.607 68.9705 128.607 69.3857C128.607 69.8008 128.674 70.216 128.884 70.5642C129.089 70.9124 129.366 71.1892 129.709 71.3945C130.058 71.5999 130.468 71.6713 130.95 71.6713C131.638 71.6713 132.263 71.3945 132.745 70.9079L133.571 71.6713C133.294 72.0195 132.883 72.2963 132.397 72.5016C131.986 72.7114 131.504 72.7784 130.95 72.7784ZM123.777 69.7339C124.33 69.7339 124.741 69.5955 125.018 69.3857C125.294 69.1758 125.433 68.8321 125.433 68.4169C125.433 68.0018 125.294 67.6536 125.018 67.4482C124.741 67.2384 124.326 67.1 123.777 67.1H122.326V69.7294H123.777V69.7339ZM123.844 66.0643C124.397 66.0643 124.946 66.1313 125.361 66.3411C125.777 66.5509 126.12 66.8277 126.33 67.1715C126.535 67.5197 126.674 67.9348 126.674 68.4169C126.674 68.9035 126.535 69.3187 126.33 69.6624C126.12 70.0106 125.777 70.2874 125.361 70.4928C124.946 70.7026 124.464 70.7695 123.844 70.7695H122.326V72.707H121.085V66.0599H123.844V66.0643ZM119.705 71.6713V72.7114H114.737V66.0643H119.567V67.1045H115.978V68.8366H119.152V69.8767H115.978V71.6757H119.705V71.6713ZM110.804 71.7382C111.701 71.7382 112.116 71.39 112.116 70.7695C112.116 70.1446 111.701 69.8008 110.804 69.8008H108.942V71.7382H110.804ZM108.942 68.9035H110.599C111.014 68.9035 111.286 68.8321 111.496 68.6937C111.701 68.5553 111.84 68.2785 111.84 68.0018C111.84 67.725 111.768 67.4482 111.496 67.3098C111.286 67.1715 111.014 67.1 110.599 67.1H108.942V68.9035ZM112.045 69.2473C112.46 69.3857 112.804 69.524 113.014 69.8008C113.219 70.0776 113.357 70.4258 113.357 70.841C113.357 71.3945 113.152 71.8811 112.737 72.2248C112.322 72.573 111.701 72.7114 110.875 72.7114H107.768V66.0643H110.737C111.496 66.0643 112.049 66.2027 112.46 66.4795C112.875 66.7563 113.081 67.1714 113.081 67.725C113.081 68.0732 113.014 68.35 112.804 68.6267C112.598 68.9035 112.393 69.1089 112.045 69.2473ZM99.9695 66.0643H101.211V70.7695L104.8 66.0643H105.974V72.7114H104.733V68.0062L101.144 72.7114H99.9695V66.0643ZM98.108 66.0643V72.7114H96.8669V69.8722H93.4162V72.7114H92.1752V66.0643H93.4162V68.8321H96.8669V66.0643H98.108ZM91.3448 66.0643L88.4476 71.3945C88.1708 71.8811 87.8941 72.2248 87.5503 72.4346C87.2066 72.6445 86.7914 72.7829 86.3763 72.7829C86.0325 72.7829 85.7558 72.7114 85.4076 72.5775L85.6843 71.6088C85.9611 71.6802 86.1665 71.7472 86.3048 71.7472C86.72 71.7472 86.9968 71.5374 87.2736 71.1222L87.4119 70.9838L84.7915 66.0019H86.104L88.0369 69.8767L90.0368 66.0019H91.3493V66.0643H91.3448Z" fill="white"/>
<path d="M162.9 53.9489C162.346 53.9489 161.936 53.8105 161.587 53.6007C161.311 53.3909 161.172 53.0471 161.172 52.5605H161.998C161.998 52.7704 162.065 52.9757 162.203 53.1141C162.342 53.2525 162.547 53.3239 162.824 53.3239C163.101 53.3239 163.306 53.2525 163.445 53.1141C163.583 52.9757 163.65 52.8373 163.65 52.5605H164.48C164.48 52.9757 164.342 53.3239 163.998 53.6007C163.936 53.8105 163.52 53.9489 162.9 53.9489ZM160.003 54.3641H161.244V59.0692L164.833 54.3641H166.007V61.0111H164.766V56.3015L161.177 61.0111H160.003V54.3641ZM156.896 54.3641H158.137V61.0111H156.896V54.3641ZM153.24 60.0379C153.722 60.0379 154.065 59.8996 154.342 59.6897C154.619 59.4799 154.757 59.1362 154.757 58.721C154.757 57.8907 154.275 57.5425 153.24 57.5425H151.65V60.0335H153.24V60.0379ZM153.516 56.6452C154.347 56.6452 154.896 56.8506 155.378 57.1988C155.793 57.5425 155.998 58.1005 155.998 58.7924C155.998 59.5558 155.793 60.1094 155.306 60.4531C154.824 60.8683 154.204 61.0067 153.307 61.0067H150.409V54.3596H151.65V56.5738H153.512V56.6452H153.516ZM148.548 54.3641V61.0111H147.307V58.1719H143.856V61.0111H142.615V54.3641H143.856V57.1318H147.307V54.3641H148.548ZM138.749 60.0379C139.231 60.0379 139.575 59.8996 139.852 59.6897C140.128 59.4799 140.267 59.1362 140.267 58.721C140.267 57.8907 139.785 57.5425 138.749 57.5425H137.16V60.0335H138.749V60.0379ZM138.954 56.6452C139.78 56.6452 140.334 56.8506 140.816 57.1988C141.231 57.5425 141.436 58.1005 141.436 58.7924C141.436 59.5558 141.231 60.1094 140.744 60.4531C140.262 60.8683 139.642 61.0067 138.745 61.0067H135.914V54.3596H137.155V56.5738H138.95V56.6452H138.954ZM134.057 54.3641V61.0111H132.816V55.3997H130.196L130.124 57.0604C130.124 57.9621 129.986 58.721 129.919 59.346C129.781 59.8996 129.575 60.3861 129.365 60.6629C129.089 60.9397 128.745 61.1495 128.263 61.1495C128.124 61.1495 127.848 61.1495 127.571 61.0825L127.638 60.0424C127.709 60.0424 127.843 60.1138 127.915 60.1138C128.33 60.1138 128.607 59.904 128.74 59.4219C128.879 58.9353 129.017 58.2434 129.017 57.2747L129.084 54.5069H134.053V54.3641H134.057ZM125.017 58.5157L123.776 55.6095L122.535 58.5157H125.017ZM125.361 59.4844H122.049L121.428 61.0067H120.187L123.156 54.3596H124.397L127.366 61.0067H126.053L125.361 59.4844ZM117.29 58.0336C117.844 58.0336 118.254 57.8952 118.531 57.6854C118.808 57.48 118.946 57.1318 118.946 56.7166C118.946 56.3015 118.808 55.9533 118.531 55.7479C118.254 55.5381 117.839 55.3997 117.29 55.3997H115.839V58.0291H117.29V58.0336ZM117.357 54.3641C117.911 54.3641 118.46 54.431 118.875 54.6408C119.29 54.8506 119.634 55.1274 119.839 55.4711C120.044 55.8149 120.183 56.2345 120.183 56.7166C120.183 57.2032 120.044 57.6184 119.839 57.9621C119.634 58.3059 119.285 58.5871 118.875 58.7924C118.46 59.0023 117.977 59.0692 117.357 59.0692H115.839V61.0067H114.598V54.3596H117.357V54.3641ZM113.286 59.971V61.0111H108.317V54.3641H113.147V55.4042H109.558V57.1363H112.732V58.1764H109.558V59.9755H113.286V59.971ZM102.317 56.5783C102.317 57.4086 102.25 58.1719 102.112 58.7255C101.974 59.279 101.835 59.6942 101.63 59.971H105.009V55.3997H102.389L102.317 56.5783ZM107.148 59.971V62.395H106.045V61.0111H100.938V62.395H99.7639V59.971H100.041C100.456 59.971 100.733 59.6228 100.938 59.0692C101.076 58.4443 101.215 57.6139 101.215 56.5068L101.282 54.431H106.112V60.0379H107.148V59.971ZM99.2103 59.971V61.0111H94.2418V54.3641H99.072V55.4042H95.4828V57.1363H98.6568V58.1764H95.4828V59.9755H99.2103V59.971ZM86.0323 57.6854C86.0323 58.2389 86.2376 58.7255 86.6528 59.0023C87.068 59.279 87.617 59.4889 88.3759 59.5558V55.681C86.7912 55.8863 86.0323 56.5068 86.0323 57.6854ZM89.483 59.6228C90.2419 59.5514 90.7955 59.346 91.2107 59.0692C91.6258 58.721 91.7642 58.3059 91.7642 57.6854C91.7642 57.1318 91.5589 56.6452 91.1437 56.3015C90.7285 55.9577 90.1794 55.8149 89.4205 55.7479V59.6228H89.483ZM92.9338 57.6854C92.9338 58.5871 92.657 59.279 92.0365 59.7612C91.416 60.2478 90.5857 60.5245 89.483 60.5915V61.2834H88.309V60.5915C87.2063 60.5245 86.3091 60.2478 85.7555 59.7612C85.135 59.2746 84.8582 58.5826 84.8582 57.6854C84.8582 56.7836 85.135 56.0917 85.7555 55.6095C86.376 55.123 87.2063 54.8462 88.309 54.7792V54.0873H89.4116V54.7792C90.5142 54.8506 91.4115 55.1274 91.9651 55.6095C92.657 56.0917 92.9338 56.7836 92.9338 57.6854Z" fill="white"/>
<path fill-rule="evenodd" clip-rule="evenodd" d="M98.7816 33.8605C103.433 33.8605 108.085 31.5749 110.844 28.6643L107.768 23.2314C106.268 25.4367 103.353 27.7982 99.2548 28.0348C92.7149 28.4277 87.5097 23.2314 87.5097 16.9326C87.5097 6.06691 101.304 1.89296 107.531 10.3167L110.527 4.96428C107.848 2.20992 103.589 0.00463867 99.0182 0.00463867C89.4025 0.00463867 81.6751 7.32579 81.6751 16.9326C81.6751 26.5349 89.2418 33.8605 98.7816 33.8605Z" fill="white"/>
<path d="M135.682 32.9139H142.459L132.526 15.5887L141.512 0H134.736L126.696 14.0173L120.861 13.937L120.781 0H114.397V32.9139H120.861V19.6868L128.111 19.6064L135.682 32.9139Z" fill="white"/>
<path d="M147.187 16.6152C147.187 9.92349 151.204 6.29862 159.088 5.66918V27.5612C151.521 26.8514 147.187 23.3069 147.187 16.6152ZM165.003 27.5612V5.66918C172.726 6.29862 176.984 9.92349 176.984 16.5348C176.984 23.2266 172.806 26.9318 165.003 27.5612ZM183.051 16.6152C183.051 6.69147 176.511 0.78991 164.922 0.156006H159.012C147.423 0.785446 140.883 6.69147 140.883 16.6152C140.883 26.5345 147.423 32.3646 159.012 32.994H164.922C176.587 32.5208 183.051 26.5345 183.051 16.6152Z" fill="white"/>
<path d="M206.992 0.156006C203.76 6.21828 201.001 11.6511 197.376 17.7937L187.841 0.156006H181.296L194.064 23.6997C192.644 25.8247 191.068 27.9496 188.229 27.9496C187.6 27.9496 186.966 27.8692 186.336 27.713L189.251 32.9896C193.037 32.9896 196.345 31.57 199.26 26.2979L213.608 0.156006H206.992Z" fill="white"/>
</svg>
