<svg width="168" height="124" viewBox="0 0 168 124" fill="none" xmlns="http://www.w3.org/2000/svg">
<path d="M148.146 55.4888C142.432 52.6323 131.719 52.5992 131.266 52.5992C129.908 52.5992 128.806 53.7004 128.806 55.0588C128.806 56.4173 129.908 57.5185 131.266 57.5185C134.03 57.5189 142.057 57.9446 145.946 59.889C146.299 60.0658 146.674 60.1491 147.044 60.1491C147.946 60.1491 148.815 59.6506 149.246 58.7891C149.853 57.574 149.361 56.0965 148.146 55.4888Z" fill="white"/>
<path d="M160.409 90.5086L150.25 87.6061C149.812 87.4808 149.505 87.0748 149.505 86.6186V83.2279C150.332 82.6552 151.12 82.0144 151.857 81.2991C155.429 77.8333 157.396 73.1844 157.396 68.2086V63.5296L158.378 61.5655C159.456 59.4092 160.025 56.9951 160.025 54.5846V41.9089C160.025 40.5505 158.924 39.4492 157.566 39.4492H133.896C125.289 39.4492 118.286 46.4518 118.286 55.0588V55.2054C118.286 57.2099 118.76 59.2173 119.657 61.0099L120.916 63.5293V67.5468C120.916 73.9138 124.054 79.6265 128.806 83.0642L128.807 86.618C128.807 87.166 128.807 87.3929 126.776 87.9734L121.819 89.3896L107.48 84.1757C107.532 83.4991 107.304 82.811 106.81 82.2925L102.228 77.4787V69.3978C102.713 68.9987 103.19 68.5887 103.653 68.1552C109.433 62.7373 112.748 55.088 112.748 47.1687V40.7152C114.494 36.9171 115.378 32.8979 115.378 28.7587V2.45969C115.378 1.10129 114.277 0 112.918 0H76.0987C63.141 0 52.5994 10.5419 52.5994 23.4993V28.7594C52.5994 32.8986 53.4839 36.9177 55.2293 40.7158V46.2685C55.2293 55.4632 59.3177 63.7468 65.7493 69.2079V77.4791L61.1674 82.2928C60.6738 82.8113 60.4455 83.4994 60.497 84.176L45.3633 89.6788C44.2666 90.0776 43.2477 90.6178 42.3225 91.272L39.9461 90.0838C47.0202 87.0046 49.2611 82.6739 49.3687 82.4588C49.715 81.7665 49.715 80.9512 49.3687 80.2588C47.5954 76.7123 47.3806 70.2118 47.2081 64.9887C47.1507 63.2499 47.0963 61.6071 46.9923 60.1444C46.1537 48.3464 37.1847 39.4492 26.1292 39.4492C15.0737 39.4492 6.10431 48.3461 5.26604 60.1444C5.16208 61.6075 5.10764 63.2502 5.05024 64.9894C4.87774 70.2121 4.6626 76.712 2.88965 80.2585C2.54332 80.9508 2.54332 81.7661 2.88965 82.4585C2.99722 82.6736 5.23357 86.9955 12.3218 90.0783L5.72092 93.3785C2.19208 95.1443 0 98.6911 0 102.636V120.808C0 122.166 1.10129 123.268 2.45969 123.268C3.8181 123.268 4.91939 122.166 4.91939 120.808V102.636C4.91939 100.566 6.06954 98.7049 7.92087 97.7791L16.1405 93.6694L18.9997 96.3866C20.9989 98.2864 23.5635 99.2359 26.1292 99.2359C28.6941 99.2359 31.2601 98.2858 33.2587 96.3866L36.1175 93.6698L38.7976 95.0098C37.5356 97.029 36.8193 99.3969 36.8193 101.877V120.809C36.8193 122.167 37.9206 123.268 39.279 123.268C40.6374 123.268 41.7387 122.167 41.7387 120.809V101.877C41.7387 98.5006 43.8708 95.4565 47.0444 94.3024L63.0003 88.5005L69.6425 98.4642C70.4916 99.738 71.8523 100.555 73.3756 100.706C73.5455 100.723 73.7144 100.731 73.883 100.731C75.227 100.731 76.5142 100.202 77.4764 99.2398L81.5287 95.1876V120.809C81.5287 122.167 82.63 123.269 83.9884 123.269C85.3468 123.269 86.4481 122.167 86.4481 120.809V95.1876L90.5004 99.2398C91.4623 100.202 92.7495 100.731 94.0938 100.731C94.2621 100.731 94.4313 100.723 94.6008 100.706C96.1245 100.555 97.4852 99.7383 98.3343 98.4645L104.977 88.5011L120.932 94.303C124.106 95.4571 126.238 98.5013 126.238 101.878V120.809C126.238 122.168 127.339 123.269 128.698 123.269C130.056 123.269 131.157 122.168 131.157 120.809V101.878C131.157 98.458 129.799 95.2505 127.519 92.8784L128.127 92.7049C128.74 92.5298 129.576 92.29 130.416 91.8784L136.696 98.1585V120.809C136.696 122.168 137.797 123.269 139.156 123.269C140.514 123.269 141.615 122.168 141.615 120.809V98.1585L147.852 91.9221C148.183 92.0906 148.532 92.233 148.898 92.3376L159.057 95.24C161.376 95.9025 162.996 98.0497 162.996 100.461V120.809C162.996 122.168 164.097 123.269 165.455 123.269C166.814 123.269 167.915 122.168 167.915 120.809V100.461C167.915 95.8641 164.828 91.7715 160.409 90.5086ZM15.7798 86.1641C11.1788 84.5085 8.87097 82.3014 7.88578 81.0961C8.55744 79.3402 8.99297 77.3292 9.28781 75.2063C10.6442 78.4587 12.916 81.2352 15.7798 83.216V86.1641ZM29.8705 92.821C27.7726 94.8143 24.4861 94.814 22.3888 92.8207L20.1013 90.647C20.4873 89.9238 20.6995 89.1039 20.6995 88.245V85.6233C22.4154 86.1595 24.2395 86.4487 26.1298 86.4487C28.0179 86.4487 29.841 86.1582 31.5598 85.6249L31.5595 88.2447C31.5595 89.1039 31.7714 89.9241 32.1577 90.6476L29.8705 92.821ZM26.1305 81.5294C18.7855 81.5294 12.8104 75.5539 12.8104 68.2093C12.8104 66.8509 11.7091 65.7496 10.3507 65.7496C10.213 65.7496 10.0785 65.7637 9.947 65.7857C9.95422 65.5741 9.96111 65.3623 9.96832 65.1527C10.0231 63.4614 10.0759 61.8639 10.1733 60.4937C10.4875 56.0741 12.2535 52.0015 15.1461 49.0256C18.0647 46.0229 21.9654 44.3693 26.1298 44.3693C30.2943 44.3693 34.1947 46.0229 37.1135 49.0256C40.0061 52.0015 41.7722 56.0741 42.0864 60.4937C42.1834 61.8636 42.2366 63.4608 42.2923 65.1517C42.2972 65.297 42.3022 65.4443 42.3071 65.5905C39.6309 61.4674 35.498 58.4289 30.1578 56.713C25.2243 55.128 20.9812 55.2261 20.8021 55.2306C20.158 55.2487 19.5467 55.5183 19.0997 55.982L14.6617 60.5846C13.7189 61.5625 13.7471 63.1197 14.725 64.0626C15.703 65.0055 17.2602 64.9769 18.2031 63.9993L21.8959 60.1697C25.0761 60.3252 35.3074 61.515 39.2866 70.2771C38.2853 76.7339 32.7356 81.5294 26.1305 81.5294ZM36.4786 86.1723L36.4789 83.2387C39.3404 81.2686 41.6154 78.4974 42.9728 75.2204C43.2677 77.3384 43.7029 79.3448 44.3732 81.0968C43.3936 82.2906 41.0749 84.5174 36.4786 86.1723ZM60.1487 46.2682V40.1655C60.1487 39.7952 60.0651 39.4296 59.9041 39.096C58.3213 35.8184 57.5188 32.3407 57.5188 28.7594V23.4996C57.5188 13.2545 65.8539 4.91972 76.0987 4.91972H110.459V28.7597C110.459 32.341 109.656 35.8187 108.073 39.0963C107.912 39.4299 107.829 39.7956 107.829 40.1658V47.1694C107.829 53.8306 105.151 60.009 100.289 64.5667C99.6816 65.1353 99.0516 65.6686 98.4002 66.1655C98.3858 66.1753 98.372 66.1861 98.3579 66.1963C93.8029 69.6546 88.2237 71.3354 82.3971 70.9579C69.9212 70.1502 60.1487 59.3052 60.1487 46.2682ZM73.9981 95.7608C73.9811 95.7779 73.9414 95.8182 73.861 95.8097C73.781 95.8018 73.7495 95.7549 73.7361 95.7346L66.0864 84.2599L68.5481 81.6733L80.1529 89.6057L73.9981 95.7608ZM83.9887 86.2687L70.6687 77.1639V72.5725C74.1152 74.4356 77.9743 75.6008 82.0787 75.8665C82.7271 75.9085 83.3715 75.9291 84.014 75.9291C88.7172 75.9291 93.2437 74.8049 97.3088 72.6709V77.1639L83.9887 86.2687ZM94.2414 95.7352C94.2279 95.7556 94.1965 95.8025 94.1164 95.8103C94.0361 95.8205 93.9967 95.7782 93.9794 95.7615L87.8245 89.6067L99.4294 81.674L101.891 84.2606L94.2414 95.7352ZM139.156 93.6599L133.574 88.0784C133.671 87.636 133.726 87.1516 133.726 86.6173L133.726 85.5793C135.275 86.0877 136.907 86.3894 138.597 86.4399C138.786 86.4458 138.974 86.4484 139.163 86.4484C141.03 86.4484 142.852 86.1664 144.586 85.6282V86.6186C144.586 87.1093 144.648 87.59 144.764 88.0521L139.156 93.6599ZM148.431 77.769C145.824 80.2989 142.381 81.635 138.744 81.5228C131.626 81.3093 125.836 75.0397 125.836 67.5475V62.9492C125.836 62.5671 125.747 62.1906 125.576 61.8492L124.056 58.8103C123.5 57.6969 123.206 56.4506 123.206 55.2057V55.0591C123.206 49.1644 128.002 44.3689 133.896 44.3689H155.106V54.5849C155.106 56.2358 154.716 57.8891 153.978 59.3659L152.736 61.8492C152.565 62.1909 152.476 62.5671 152.476 62.9492V68.209C152.476 71.8428 151.04 75.2378 148.431 77.769Z" fill="white"/>
<path d="M154.935 102.569C153.577 102.569 152.476 103.67 152.476 105.028V120.808C152.476 122.166 153.577 123.268 154.935 123.268C156.294 123.268 157.395 122.166 157.395 120.808V105.028C157.395 103.67 156.294 102.569 154.935 102.569Z" fill="white"/>
<path d="M12.9796 105.82C11.6212 105.82 10.52 106.921 10.52 108.28V120.808C10.52 122.167 11.6212 123.268 12.9796 123.268C14.3381 123.268 15.4393 122.167 15.4393 120.808V108.28C15.4393 106.922 14.3381 105.82 12.9796 105.82Z" fill="white"/>
<path d="M104.138 29.6505C94.8347 20.3476 75.3707 22.1261 67.4334 23.3225C64.9334 23.6993 63.1191 25.815 63.1191 28.3531V34.0196C63.1191 35.378 64.2204 36.4792 65.5788 36.4792C66.9372 36.4792 68.0385 35.378 68.0385 34.0196V28.3527C68.0385 28.2691 68.0936 28.1976 68.1671 28.1865C71.3374 27.7086 77.6287 26.9714 84.1469 27.4059C91.8172 27.9166 97.3728 29.842 100.659 33.1288C101.62 34.0894 103.177 34.0894 104.138 33.1288C105.098 32.1682 105.098 30.6107 104.138 29.6505Z" fill="white"/>
<path d="M55.0591 107.829C53.7006 107.829 52.5994 108.93 52.5994 110.288V120.808C52.5994 122.167 53.7006 123.268 55.0591 123.268C56.4175 123.268 57.5187 122.167 57.5187 120.808V110.288C57.5187 108.93 56.4175 107.829 55.0591 107.829Z" fill="white"/>
<path d="M112.918 107.829C111.56 107.829 110.459 108.93 110.459 110.288V120.808C110.459 122.167 111.56 123.268 112.918 123.268C114.277 123.268 115.378 122.167 115.378 120.808V110.288C115.378 108.93 114.277 107.829 112.918 107.829Z" fill="white"/>
</svg>
