<svg width="140" height="163" viewBox="0 0 140 163" fill="none" xmlns="http://www.w3.org/2000/svg">
<path d="M124.993 103.04V44.9586C124.993 43.1548 123.518 41.9086 121.714 41.9086H109.022C107.218 41.9086 105.644 43.1548 105.644 44.9586V97.3337C103.676 97.3993 101.38 97.6617 99.4126 98.1536V62.0781C99.4126 60.2743 97.8712 58.9625 96.0675 58.9625H83.3754C81.5717 58.9625 80.063 60.2415 80.063 62.0781V111.042C76.1275 116.519 74.0942 123.111 74.0942 129.867C74.0942 147.807 88.6884 162.368 106.628 162.368C124.567 162.368 139.161 147.774 139.161 129.867C139.129 119.143 133.848 109.042 124.993 103.04ZM118.434 48.4678V99.5638C116.467 98.7767 114.499 98.2192 112.203 97.8584V48.4678H118.434ZM92.8534 65.5216V100.449C90.5577 101.466 88.59 102.745 86.6222 104.188V65.5216H92.8534ZM106.628 155.809C92.3287 155.809 80.6862 144.166 80.6862 129.867C80.6862 123.898 82.6539 118.29 86.3927 113.633C89.1147 110.222 92.6895 107.566 96.7234 105.926C97.1169 105.861 97.4777 105.697 97.8056 105.5C100.626 104.45 103.611 103.926 106.661 103.926C107.349 103.926 108.005 103.958 108.694 104.024H108.727C112.662 104.319 116.499 105.533 119.877 107.566C127.716 112.223 132.602 120.75 132.602 129.867C132.569 144.166 120.927 155.809 106.628 155.809Z" fill="white"/>
<path d="M47.923 88.4787C47.923 86.6749 46.4472 85.1991 44.6434 85.1991H31.853C30.0492 85.1991 28.5734 86.6749 28.5734 88.4787V139.968C28.5734 141.772 30.0492 143.248 31.853 143.248H44.6434C46.4472 143.248 47.923 141.772 47.923 139.968V88.4787ZM41.3638 137.017H35.1326V91.7583H41.3638V137.017Z" fill="white"/>
<path d="M73.8317 80.9357C73.8317 79.1319 72.3559 77.6561 70.5521 77.6561H57.7617C55.9579 77.6561 54.4821 79.1319 54.4821 80.9357V140.296C54.4821 142.1 55.9579 143.576 57.7617 143.576H70.5521C72.3559 143.576 73.8317 142.1 73.8317 140.296V80.9357ZM67.2725 137.017H61.0413V84.2153H67.2725V137.017Z" fill="white"/>
<path d="M22.0143 116.683C22.0143 114.88 20.5385 113.404 18.7347 113.404H5.94428C4.1405 113.404 2.66469 114.88 2.66469 116.683V139.968C2.66469 141.772 4.1405 143.248 5.94428 143.248H18.7347C20.5385 143.248 22.0143 141.772 22.0143 139.968V116.683ZM15.4551 137.017H9.22387V119.963H15.4551V137.017Z" fill="white"/>
<path d="M5.6163 97.5304L66.2888 36.858L78.7184 49.386C79.3416 50.0091 80.1614 50.4355 81.0469 50.4355C81.9324 50.4355 82.7523 49.9764 83.3754 49.386L121.189 11.5067L121.156 26.1009C121.156 27.9047 122.632 29.4789 124.436 29.4789C126.24 29.4789 127.716 27.9047 127.716 26.1009L127.748 3.60292C127.748 2.71743 127.42 1.89753 126.797 1.27441C126.174 0.651282 125.354 0.290527 124.469 0.290527L102.036 0.323323C100.233 0.323323 98.7567 1.79914 98.7567 3.60292C98.7567 5.40669 100.233 6.88251 102.036 6.88251L116.565 6.84971L81.0141 42.3021L68.5845 29.9708C67.9614 29.3477 67.1415 29.1181 66.256 29.1181C65.3705 29.1181 64.5506 29.3805 63.9275 29.9708L0.959281 92.939C-0.31976 94.2181 -0.31976 96.2842 0.959281 97.5632C1.6152 98.2192 2.4351 98.5143 3.28779 98.5143C4.14049 98.5143 4.96038 98.1536 5.6163 97.5304Z" fill="white"/>
<path d="M118.298 117.408C120.338 119.399 121.358 121.93 121.358 124.998C121.358 128.066 120.338 130.588 118.298 132.563C116.258 134.538 113.556 135.526 110.193 135.526H102.26V149.286H96.9721V114.42H110.193C113.556 114.42 116.258 115.417 118.298 117.408ZM114.405 129.283C115.515 128.253 116.07 126.826 116.07 124.998C116.07 123.17 115.515 121.741 114.405 120.713C113.295 119.685 111.793 119.171 109.901 119.171H102.261V130.826H109.901C111.794 130.826 113.295 130.311 114.405 129.283Z" fill="white"/>
<path fill-rule="evenodd" clip-rule="evenodd" d="M95.7639 138.151H115.333V143.203H95.7639V138.151Z" fill="white"/>
</svg>
