<svg width="158" height="153" viewBox="0 0 158 153" fill="none" xmlns="http://www.w3.org/2000/svg">
  <path
    d="M133.432 62.4562C134.673 62.4575 135.679 61.4533 135.681 60.2129C135.681 60.2113 135.681 60.2093 135.681 60.2077V52.3367C135.682 51.0963 134.678 50.0895 133.437 50.0882C133.436 50.0882 133.434 50.0882 133.432 50.0882H2.24849C1.00815 50.0869 0.00131312 51.0911 1.28381e-06 52.3314C1.28381e-06 52.333 1.28381e-06 52.335 1.28381e-06 52.3367V115.305C-0.00131055 116.545 1.0029 117.552 2.24324 117.553C2.24488 117.553 2.24685 117.553 2.24849 117.553H91.4534C92.6951 117.553 93.7019 116.546 93.7019 115.305C93.7019 114.063 92.6951 113.056 91.4534 113.056H4.49698V54.5851H131.184V60.2077C131.182 61.448 132.187 62.4549 133.427 62.4562C133.429 62.4562 133.431 62.4562 133.432 62.4562Z" />
  <path
    d="M11.539 16.3292C11.0349 16.6503 10.6784 17.1576 10.5472 17.7407L5.29989 41.3538C5.0303 42.5666 5.7951 43.7682 7.0079 44.0378C8.22069 44.3074 9.42233 43.5426 9.69192 42.3298L14.4486 20.918L117.197 44.0352C117.36 44.0729 117.526 44.0913 117.693 44.0903C118.934 44.088 119.939 43.0795 119.937 41.8379C119.935 40.7881 119.208 39.8796 118.183 39.6484L13.2365 16.0353C12.654 15.9055 12.0437 16.0111 11.539 16.3292Z" />
  <path
    d="M38.374 13.9889L42.6794 5.3728L103.703 30.7988C104.853 31.2783 106.173 30.7359 106.652 29.5867C107.132 28.4375 106.589 27.1172 105.44 26.6377L42.4721 0.400932C41.3777 -0.055259 40.1167 0.413395 39.5861 1.47402L34.3387 11.9687C33.7461 13.0648 34.1541 14.434 35.2505 15.0266C36.3468 15.6192 37.7157 15.2112 38.3084 14.1149C38.3316 14.0719 38.3536 14.028 38.374 13.9834V13.9889Z" />
  <path
    d="M109.279 62.8312C109.279 61.5895 108.272 60.5827 107.03 60.5827H86.206C84.9644 60.5827 83.9576 61.5895 83.9576 62.8312C83.9576 64.0729 84.9644 65.0797 86.206 65.0797H107.03C108.272 65.0797 109.279 64.0732 109.279 62.8312Z" />
  <path
    d="M65.2166 106.909C77.968 106.909 88.305 96.572 88.305 83.8206C88.305 71.0692 77.968 60.7322 65.2166 60.7322C52.4653 60.7322 42.1283 71.0692 42.1283 83.8206C42.1414 96.5667 52.4708 106.896 65.2166 106.909ZM65.2166 64.9301C75.6497 64.9301 84.1071 73.3875 84.1071 83.8206C84.1071 94.2536 75.6497 102.711 65.2166 102.711C54.7836 102.711 46.3262 94.2536 46.3262 83.8206C46.3377 73.3925 54.7885 64.9419 65.2166 64.9301Z" />
  <path
    d="M128.185 68.0786C114.279 68.0786 99.3243 71.3634 99.3243 78.5733V141.541C99.3243 148.751 114.279 152.036 128.185 152.036C142.09 152.036 157.045 148.751 157.045 141.541V78.5733C157.045 71.3634 142.09 68.0786 128.185 68.0786ZM151.798 131.007C151.402 132.464 143.533 136.294 128.185 136.294C112.836 136.294 104.968 132.464 104.572 131.047V126.922C110.155 129.735 119.377 131.047 128.185 131.047C136.992 131.047 146.217 129.722 151.798 126.92V131.007ZM151.798 120.513C151.402 121.969 143.533 125.799 128.185 125.799C112.836 125.799 104.968 121.969 104.572 120.552V116.428C110.155 119.24 119.377 120.552 128.185 120.552C136.992 120.552 146.217 119.227 151.798 116.425V120.513ZM151.798 110.018C151.402 111.474 143.533 115.305 128.185 115.305C112.836 115.305 104.968 111.474 104.572 110.057V105.933C110.155 108.746 119.377 110.057 128.185 110.057C136.992 110.057 146.217 108.732 151.798 105.93V110.018ZM151.798 99.5233C151.402 100.979 143.533 104.81 128.185 104.81C112.836 104.81 104.968 100.979 104.572 99.5626V95.4382C110.155 98.2377 119.377 99.5626 128.185 99.5626C136.992 99.5626 146.217 98.2377 151.798 95.4356V99.5233ZM151.798 89.0286C151.402 90.4847 143.533 94.3153 128.185 94.3153C112.836 94.3153 104.968 90.4847 104.572 89.0679V84.9435C110.155 87.743 119.377 89.0679 128.185 89.0679C136.992 89.0679 146.217 87.743 151.798 84.9409V89.0286ZM128.185 73.3259C143.402 73.3259 151.273 77.0883 151.798 78.5733C151.273 80.0583 143.402 83.8206 128.185 83.8206C112.86 83.8206 104.994 80.0005 104.572 78.6205V78.6047C104.994 77.1433 112.86 73.3259 128.185 73.3259ZM128.185 146.789C112.836 146.789 104.968 142.958 104.572 141.541V137.417C110.155 140.23 119.377 141.541 128.185 141.541C136.992 141.541 146.217 140.216 151.798 137.414V141.502C151.402 142.958 143.533 146.789 128.185 146.789Z" />
  <path
    d="M25.3762 65.0797H44.2273C45.469 65.0797 46.4758 64.0729 46.4758 62.8312C46.4758 61.5896 45.469 60.5827 44.2273 60.5827H24.4632C23.8755 60.5814 23.3104 60.8103 22.889 61.2203L11.169 72.6516C10.7312 73.1632 10.4912 73.8149 10.4921 74.4882V93.1478C10.4921 93.7089 10.7017 94.2497 11.0798 94.6642L21.7398 106.324C22.1658 106.79 22.7686 107.056 23.4006 107.056H44.2273C45.469 107.056 46.4758 106.049 46.4758 104.807C46.4758 103.566 45.469 102.559 44.2273 102.559H24.395L14.9917 92.2741V75.2202L25.3762 65.0797Z" />
  <path
    d="M75.1988 73.1042C76.8102 74.6774 77.6164 76.6772 77.6164 79.1014C77.6164 81.526 76.8102 83.5188 75.1988 85.0788C73.5864 86.6397 71.4516 87.4199 68.7947 87.4199H62.5266V98.2923H58.348V70.7438H68.7947C71.4516 70.7438 73.5864 71.531 75.1988 73.1042ZM72.1223 82.487C72.9997 81.6738 73.4378 80.5457 73.4378 79.1014C73.4378 77.6571 72.9997 76.5281 72.1223 75.7158C71.2458 74.9034 70.0587 74.4971 68.5634 74.4971H62.5271V83.7062H68.5634C70.0592 83.7062 71.2458 83.2993 72.1223 82.487Z" />
  <path fill-rule="evenodd" clip-rule="evenodd" d="M57.3927 89.4945H72.8554V93.4862H57.3927V89.4945Z" />
</svg>